%TF.GenerationSoftware,KiCad,Pcbnew,8.0.1*%
%TF.CreationDate,2024-08-17T00:08:37+01:00*%
%TF.ProjectId,ProjectALIENExpansionDemoButtons,50726f6a-6563-4744-914c-49454e457870,rev?*%
%TF.SameCoordinates,Original*%
%TF.FileFunction,Legend,Bot*%
%TF.FilePolarity,Positive*%
%FSLAX46Y46*%
G04 Gerber Fmt 4.6, Leading zero omitted, Abs format (unit mm)*
G04 Created by KiCad (PCBNEW 8.0.1) date 2024-08-17 00:08:37*
%MOMM*%
%LPD*%
G01*
G04 APERTURE LIST*
%ADD10C,0.150000*%
%ADD11C,0.120000*%
G04 APERTURE END LIST*
D10*
G36*
X109563893Y-123829410D02*
G01*
X109614139Y-123826214D01*
X109665939Y-123815315D01*
X109714102Y-123796681D01*
X109757162Y-123770087D01*
X109793988Y-123735643D01*
X109822057Y-123697519D01*
X109843844Y-123652730D01*
X109858522Y-123601405D01*
X109865655Y-123549626D01*
X109866754Y-123531189D01*
X109865288Y-123527281D01*
X109736084Y-123527281D01*
X109731365Y-123579536D01*
X109718600Y-123627716D01*
X109692828Y-123671806D01*
X109690166Y-123674804D01*
X109648715Y-123705325D01*
X109599577Y-123719687D01*
X109566091Y-123721943D01*
X109517301Y-123716630D01*
X109473034Y-123697763D01*
X109436739Y-123662505D01*
X109419545Y-123630840D01*
X109405824Y-123581842D01*
X109401960Y-123532655D01*
X109401960Y-122925711D01*
X109534583Y-122907882D01*
X109534583Y-122819710D01*
X109155763Y-122819710D01*
X109155763Y-122906416D01*
X109267138Y-122925711D01*
X109267138Y-123532655D01*
X109270453Y-123586097D01*
X109280399Y-123635294D01*
X109298999Y-123684507D01*
X109301087Y-123688726D01*
X109328208Y-123731185D01*
X109362891Y-123766545D01*
X109400983Y-123792529D01*
X109449985Y-123813527D01*
X109500895Y-123825052D01*
X109551893Y-123829266D01*
X109563893Y-123829410D01*
G37*
G36*
X109025826Y-123815000D02*
G01*
X109025826Y-123728782D01*
X108872197Y-123709731D01*
X108872197Y-122963813D01*
X109028756Y-122966744D01*
X109028756Y-122882480D01*
X108737375Y-122819710D01*
X108737375Y-123709731D01*
X108584235Y-123728782D01*
X108584235Y-123815000D01*
X109025826Y-123815000D01*
G37*
G36*
X168082079Y-123829410D02*
G01*
X168132325Y-123826214D01*
X168184125Y-123815315D01*
X168232288Y-123796681D01*
X168275348Y-123770087D01*
X168312174Y-123735643D01*
X168340243Y-123697519D01*
X168362030Y-123652730D01*
X168376708Y-123601405D01*
X168383841Y-123549626D01*
X168384940Y-123531189D01*
X168383474Y-123527281D01*
X168254270Y-123527281D01*
X168249551Y-123579536D01*
X168236786Y-123627716D01*
X168211014Y-123671806D01*
X168208352Y-123674804D01*
X168166901Y-123705325D01*
X168117763Y-123719687D01*
X168084277Y-123721943D01*
X168035487Y-123716630D01*
X167991220Y-123697763D01*
X167954925Y-123662505D01*
X167937731Y-123630840D01*
X167924010Y-123581842D01*
X167920146Y-123532655D01*
X167920146Y-122925711D01*
X168052769Y-122907882D01*
X168052769Y-122819710D01*
X167673949Y-122819710D01*
X167673949Y-122906416D01*
X167785324Y-122925711D01*
X167785324Y-123532655D01*
X167788639Y-123586097D01*
X167798585Y-123635294D01*
X167817185Y-123684507D01*
X167819273Y-123688726D01*
X167846394Y-123731185D01*
X167881077Y-123766545D01*
X167919169Y-123792529D01*
X167968171Y-123813527D01*
X168019081Y-123825052D01*
X168070079Y-123829266D01*
X168082079Y-123829410D01*
G37*
G36*
X167560620Y-123815000D02*
G01*
X167560620Y-123722676D01*
X167234312Y-123360464D01*
X167200590Y-123321695D01*
X167169171Y-123283292D01*
X167143698Y-123249333D01*
X167117186Y-123207935D01*
X167097780Y-123165558D01*
X167086655Y-123117492D01*
X167084835Y-123087644D01*
X167091189Y-123035105D01*
X167110252Y-122989230D01*
X167130020Y-122962348D01*
X167169221Y-122931241D01*
X167219413Y-122914491D01*
X167258980Y-122911301D01*
X167309885Y-122916453D01*
X167357229Y-122934021D01*
X167395512Y-122964057D01*
X167423323Y-123005354D01*
X167438588Y-123051913D01*
X167444170Y-123101158D01*
X167444360Y-123113046D01*
X167573565Y-123113046D01*
X167574786Y-123108893D01*
X167572201Y-123056725D01*
X167561696Y-123007991D01*
X167543273Y-122962691D01*
X167538638Y-122954043D01*
X167508206Y-122910236D01*
X167469635Y-122873181D01*
X167427508Y-122845355D01*
X167379322Y-122824232D01*
X167331346Y-122811910D01*
X167279004Y-122805925D01*
X167254340Y-122805300D01*
X167203277Y-122808140D01*
X167151480Y-122817957D01*
X167104883Y-122834787D01*
X167091918Y-122841203D01*
X167048763Y-122869004D01*
X167012997Y-122903039D01*
X166986894Y-122939389D01*
X166965896Y-122984262D01*
X166953615Y-123033580D01*
X166950013Y-123082271D01*
X166954736Y-123133401D01*
X166967665Y-123180832D01*
X166971506Y-123190959D01*
X166992275Y-123235259D01*
X167019655Y-123280446D01*
X167034521Y-123301601D01*
X167064890Y-123341308D01*
X167099242Y-123382516D01*
X167133928Y-123421280D01*
X167395756Y-123706311D01*
X167394291Y-123709731D01*
X167040871Y-123709731D01*
X167030125Y-123595669D01*
X166915819Y-123595669D01*
X166915819Y-123815000D01*
X167560620Y-123815000D01*
G37*
D11*
%TO.C,J1*%
X107890000Y-127000000D02*
X110550000Y-127000000D01*
X107890000Y-132140000D02*
X107890000Y-127000000D01*
X107890000Y-132140000D02*
X110550000Y-132140000D01*
X109220000Y-124400000D02*
X110550000Y-124400000D01*
X110550000Y-124400000D02*
X110550000Y-125730000D01*
X110550000Y-132140000D02*
X110550000Y-127000000D01*
%TO.C,J2*%
X166310000Y-127000000D02*
X168970000Y-127000000D01*
X166310000Y-132140000D02*
X166310000Y-127000000D01*
X166310000Y-132140000D02*
X168970000Y-132140000D01*
X167640000Y-124400000D02*
X168970000Y-124400000D01*
X168970000Y-124400000D02*
X168970000Y-125730000D01*
X168970000Y-132140000D02*
X168970000Y-127000000D01*
%TD*%
M02*
