%TF.GenerationSoftware,KiCad,Pcbnew,8.0.1*%
%TF.CreationDate,2024-08-17T00:23:43+01:00*%
%TF.ProjectId,ProjectALIENExpansionDemoButtons,50726f6a-6563-4744-914c-49454e457870,rev?*%
%TF.SameCoordinates,Original*%
%TF.FileFunction,Legend,Bot*%
%TF.FilePolarity,Positive*%
%FSLAX46Y46*%
G04 Gerber Fmt 4.6, Leading zero omitted, Abs format (unit mm)*
G04 Created by KiCad (PCBNEW 8.0.1) date 2024-08-17 00:23:43*
%MOMM*%
%LPD*%
G01*
G04 APERTURE LIST*
%ADD10C,0.100000*%
%ADD11C,0.150000*%
%ADD12C,0.120000*%
G04 APERTURE END LIST*
D10*
G36*
X141757787Y-137563594D02*
G01*
X141838344Y-137573762D01*
X141911317Y-137598455D01*
X141976704Y-137637675D01*
X142000546Y-137657207D01*
X142053991Y-137714251D01*
X142094567Y-137775624D01*
X142128013Y-137846503D01*
X142131258Y-137854927D01*
X142153515Y-137925434D01*
X142169177Y-138001484D01*
X142178245Y-138083074D01*
X142180769Y-138159011D01*
X142180769Y-138180627D01*
X142178914Y-138238776D01*
X142170671Y-138312140D01*
X142153515Y-138388982D01*
X142128013Y-138459796D01*
X142121196Y-138474656D01*
X142081834Y-138542726D01*
X142033670Y-138600422D01*
X141976704Y-138647741D01*
X141957904Y-138659723D01*
X141890584Y-138691150D01*
X141816109Y-138709483D01*
X141742964Y-138714786D01*
X141712721Y-138713909D01*
X141639280Y-138703426D01*
X141568574Y-138678882D01*
X141554542Y-138671854D01*
X141489981Y-138627826D01*
X141438149Y-138573369D01*
X141438149Y-138678882D01*
X141443162Y-138752710D01*
X141462907Y-138829092D01*
X141501530Y-138895037D01*
X141553381Y-138938214D01*
X141622288Y-138963469D01*
X141699733Y-138970875D01*
X141773647Y-138966020D01*
X141849576Y-138951457D01*
X141912968Y-138932504D01*
X141982932Y-138902364D01*
X142034956Y-139059168D01*
X142012314Y-139070682D01*
X141943111Y-139098731D01*
X141871191Y-139119252D01*
X141848042Y-139124404D01*
X141775652Y-139136404D01*
X141697535Y-139141234D01*
X141670244Y-139140741D01*
X141593086Y-139133351D01*
X141515649Y-139114740D01*
X141446941Y-139085180D01*
X141387393Y-139045689D01*
X141332964Y-138991421D01*
X141290138Y-138925812D01*
X141280513Y-138906086D01*
X141255268Y-138835218D01*
X141240542Y-138756478D01*
X141236282Y-138678882D01*
X141236282Y-138391653D01*
X141438149Y-138391653D01*
X141440666Y-138396359D01*
X141483486Y-138458972D01*
X141539632Y-138509256D01*
X141547441Y-138514269D01*
X141618264Y-138542731D01*
X141692406Y-138550655D01*
X141710206Y-138550258D01*
X141790534Y-138536384D01*
X141856408Y-138502688D01*
X141907828Y-138449172D01*
X141931857Y-138408810D01*
X141958580Y-138339622D01*
X141974117Y-138260059D01*
X141978536Y-138180627D01*
X141978536Y-138159011D01*
X141976044Y-138089907D01*
X141966228Y-138011979D01*
X141947029Y-137935163D01*
X141936281Y-137905843D01*
X141900970Y-137839155D01*
X141851041Y-137782755D01*
X141834509Y-137769789D01*
X141763540Y-137736564D01*
X141690574Y-137727434D01*
X141685081Y-137727475D01*
X141608783Y-137737784D01*
X141539998Y-137768833D01*
X141483212Y-137817560D01*
X141438149Y-137880941D01*
X141438149Y-138391653D01*
X141236282Y-138391653D01*
X141236282Y-137742112D01*
X141098895Y-137712780D01*
X141098895Y-137583819D01*
X141345825Y-137583819D01*
X141406641Y-137583819D01*
X141424960Y-137723038D01*
X141438647Y-137704193D01*
X141492953Y-137647252D01*
X141557217Y-137604336D01*
X141593048Y-137588348D01*
X141666010Y-137569073D01*
X141740766Y-137563303D01*
X141757787Y-137563594D01*
G37*
G36*
X141006205Y-138693171D02*
G01*
X141006205Y-138563844D01*
X140839143Y-138535267D01*
X140839143Y-137742455D01*
X141006205Y-137713879D01*
X141006205Y-137583819D01*
X140637276Y-137583819D01*
X140637276Y-138535267D01*
X140470214Y-138563844D01*
X140470214Y-138693171D01*
X141006205Y-138693171D01*
G37*
G36*
X140849401Y-137309779D02*
G01*
X140849401Y-137093624D01*
X140637276Y-137093624D01*
X140637276Y-137309779D01*
X140849401Y-137309779D01*
G37*
G36*
X139939352Y-138710756D02*
G01*
X140017965Y-138702228D01*
X140089999Y-138673471D01*
X140134625Y-138638582D01*
X140178606Y-138572018D01*
X140199750Y-138497973D01*
X140206728Y-138416893D01*
X140206798Y-138407040D01*
X140206798Y-137733296D01*
X140382287Y-137733296D01*
X140382287Y-137583819D01*
X140206798Y-137583819D01*
X140206798Y-137316007D01*
X140004932Y-137316007D01*
X140004932Y-137583819D01*
X139763864Y-137583819D01*
X139763864Y-137733296D01*
X140004932Y-137733296D01*
X140004932Y-138407040D01*
X139995936Y-138480112D01*
X139973058Y-138525009D01*
X139907236Y-138561772D01*
X139888061Y-138563111D01*
X139813658Y-138557315D01*
X139808194Y-138556517D01*
X139739318Y-138544427D01*
X139711474Y-138676684D01*
X139785419Y-138694467D01*
X139819918Y-138700498D01*
X139892953Y-138709063D01*
X139939352Y-138710756D01*
G37*
G36*
X139609258Y-138693171D02*
G01*
X139609258Y-138563844D01*
X139442196Y-138535267D01*
X139442196Y-137252626D01*
X139609258Y-137223683D01*
X139609258Y-137093624D01*
X139239963Y-137093624D01*
X139239963Y-137731464D01*
X139189233Y-137672260D01*
X139129918Y-137625028D01*
X139099646Y-137607267D01*
X139029051Y-137578802D01*
X138952410Y-137564849D01*
X138914998Y-137563303D01*
X138840779Y-137568405D01*
X138765359Y-137586729D01*
X138692500Y-137623272D01*
X138638393Y-137669915D01*
X138595276Y-137730388D01*
X138564479Y-137805195D01*
X138547637Y-137882410D01*
X138540707Y-137957328D01*
X138539841Y-137997811D01*
X138539841Y-138535267D01*
X138372412Y-138563844D01*
X138372412Y-138693171D01*
X138908770Y-138693171D01*
X138908770Y-138563844D01*
X138741708Y-138535267D01*
X138741708Y-137995979D01*
X138747468Y-137917125D01*
X138769587Y-137841013D01*
X138800692Y-137793013D01*
X138863384Y-137748184D01*
X138934756Y-137729740D01*
X138976547Y-137727434D01*
X139051214Y-137736128D01*
X139123582Y-137764567D01*
X139127856Y-137767002D01*
X139189954Y-137813347D01*
X139237192Y-137869772D01*
X139239963Y-137873980D01*
X139239963Y-138535267D01*
X139072901Y-138563844D01*
X139072901Y-138693171D01*
X139609258Y-138693171D01*
G37*
G36*
X137788428Y-138714786D02*
G01*
X137863519Y-138709246D01*
X137940106Y-138689348D01*
X138006847Y-138654978D01*
X138063742Y-138606138D01*
X138070162Y-138599015D01*
X138114561Y-138532886D01*
X138143004Y-138461800D01*
X138161734Y-138378372D01*
X138170059Y-138297039D01*
X138171645Y-138237780D01*
X138171645Y-137742455D01*
X138298773Y-137713879D01*
X138298773Y-137583819D01*
X138171645Y-137583819D01*
X137969778Y-137583819D01*
X137969778Y-138239978D01*
X137966527Y-138321723D01*
X137955096Y-138397155D01*
X137927052Y-138470502D01*
X137917754Y-138483977D01*
X137855759Y-138531836D01*
X137781192Y-138549613D01*
X137754356Y-138550655D01*
X137678879Y-138544524D01*
X137604237Y-138521874D01*
X137576669Y-138507057D01*
X137518291Y-138458215D01*
X137475046Y-138393434D01*
X137470424Y-138383593D01*
X137470424Y-137742455D01*
X137619168Y-137713879D01*
X137619168Y-137583819D01*
X137470424Y-137583819D01*
X137268557Y-137583819D01*
X137268557Y-138535267D01*
X137141429Y-138563844D01*
X137141429Y-138693171D01*
X137449907Y-138693171D01*
X137463096Y-138529039D01*
X137506665Y-138590314D01*
X137563516Y-138643671D01*
X137598285Y-138666792D01*
X137669433Y-138697866D01*
X137742514Y-138712489D01*
X137788428Y-138714786D01*
G37*
G36*
X137092336Y-137223683D02*
G01*
X136925274Y-137252626D01*
X136925274Y-138693171D01*
X136750884Y-138693171D01*
X136732200Y-138550655D01*
X136714946Y-138575000D01*
X136663974Y-138629339D01*
X136599209Y-138673387D01*
X136562757Y-138689518D01*
X136487898Y-138708964D01*
X136410532Y-138714786D01*
X136393739Y-138714524D01*
X136314327Y-138705358D01*
X136242499Y-138683097D01*
X136178257Y-138647741D01*
X136166299Y-138639110D01*
X136111830Y-138589816D01*
X136066235Y-138530289D01*
X136029513Y-138460529D01*
X136011833Y-138414075D01*
X135992172Y-138339178D01*
X135980741Y-138258021D01*
X135977489Y-138180627D01*
X136180821Y-138180627D01*
X136182512Y-138231233D01*
X136192249Y-138305542D01*
X136213549Y-138379341D01*
X136250064Y-138449172D01*
X136258963Y-138461461D01*
X136318240Y-138514878D01*
X136387306Y-138542627D01*
X136461823Y-138550655D01*
X136479026Y-138550259D01*
X136552837Y-138537937D01*
X136620092Y-138505592D01*
X136628136Y-138499835D01*
X136681626Y-138448717D01*
X136723041Y-138383593D01*
X136723041Y-137893397D01*
X136720656Y-137888688D01*
X136678710Y-137825254D01*
X136621191Y-137772497D01*
X136608912Y-137764444D01*
X136539790Y-137736060D01*
X136463655Y-137727434D01*
X136445888Y-137727917D01*
X136370895Y-137742944D01*
X136305019Y-137782389D01*
X136286219Y-137800485D01*
X136241861Y-137862195D01*
X136211596Y-137934064D01*
X136194075Y-138004282D01*
X136183827Y-138081946D01*
X136180821Y-138159011D01*
X136180821Y-138180627D01*
X135977489Y-138180627D01*
X135977489Y-138159011D01*
X135977540Y-138147903D01*
X135980741Y-138072572D01*
X135990495Y-137991675D01*
X136006753Y-137916318D01*
X136029513Y-137846503D01*
X136039598Y-137821820D01*
X136074644Y-137754110D01*
X136122014Y-137690025D01*
X136178257Y-137637675D01*
X136196749Y-137624384D01*
X136263554Y-137589522D01*
X136338300Y-137569186D01*
X136412364Y-137563303D01*
X136444120Y-137564251D01*
X136520659Y-137575591D01*
X136593348Y-137602138D01*
X136612284Y-137612396D01*
X136672431Y-137656955D01*
X136723041Y-137714978D01*
X136723041Y-137093624D01*
X137092336Y-137093624D01*
X137092336Y-137223683D01*
G37*
G36*
X135753274Y-138693171D02*
G01*
X135753274Y-138486175D01*
X135551408Y-138486175D01*
X135551408Y-138693171D01*
X135753274Y-138693171D01*
G37*
G36*
X134819045Y-138714786D02*
G01*
X134900849Y-138709222D01*
X134976452Y-138692529D01*
X135045852Y-138664709D01*
X135081729Y-138644444D01*
X135140613Y-138600559D01*
X135196727Y-138541668D01*
X135238847Y-138479552D01*
X135255019Y-138449172D01*
X135284772Y-138375650D01*
X135304787Y-138296042D01*
X135314404Y-138220170D01*
X135316568Y-138160110D01*
X135316568Y-138116880D01*
X135312859Y-138039989D01*
X135301730Y-137967220D01*
X135280343Y-137890281D01*
X135257217Y-137834046D01*
X135219511Y-137767740D01*
X135173574Y-137709780D01*
X135119408Y-137660166D01*
X135085759Y-137636210D01*
X135019485Y-137600967D01*
X134946371Y-137577258D01*
X134866419Y-137565083D01*
X134819045Y-137563303D01*
X134738460Y-137567596D01*
X134664314Y-137580476D01*
X134590192Y-137604562D01*
X134583840Y-137607267D01*
X134518175Y-137641388D01*
X134455329Y-137687498D01*
X134414213Y-137728167D01*
X134409084Y-137994880D01*
X134566987Y-137994880D01*
X134601791Y-137801074D01*
X134660908Y-137757033D01*
X134688986Y-137743921D01*
X134761629Y-137725345D01*
X134812085Y-137722305D01*
X134886737Y-137732543D01*
X134957384Y-137766235D01*
X134970354Y-137775794D01*
X135024229Y-137829219D01*
X135063959Y-137891260D01*
X135076600Y-137918310D01*
X135099595Y-137987965D01*
X135111977Y-138063390D01*
X135114335Y-138116880D01*
X135114335Y-138160110D01*
X135110179Y-138239506D01*
X135096166Y-138317628D01*
X135079164Y-138370404D01*
X135045271Y-138436087D01*
X134997547Y-138491946D01*
X134977681Y-138508157D01*
X134910040Y-138543131D01*
X134837030Y-138556455D01*
X134820145Y-138556883D01*
X134742601Y-138547571D01*
X134672076Y-138516717D01*
X134650152Y-138500463D01*
X134600874Y-138443031D01*
X134571652Y-138369470D01*
X134566987Y-138345491D01*
X134385270Y-138345491D01*
X134383438Y-138351719D01*
X134395224Y-138427118D01*
X134422247Y-138498527D01*
X134439858Y-138530138D01*
X134488728Y-138592389D01*
X134546610Y-138640405D01*
X134586038Y-138664228D01*
X134656217Y-138693012D01*
X134729031Y-138708812D01*
X134810433Y-138714737D01*
X134819045Y-138714786D01*
G37*
G36*
X133748049Y-137565083D02*
G01*
X133826636Y-137577258D01*
X133898848Y-137600967D01*
X133964684Y-137636210D01*
X133998149Y-137660229D01*
X134052209Y-137710271D01*
X134098329Y-137769065D01*
X134136509Y-137836611D01*
X134160063Y-137894143D01*
X134181846Y-137973265D01*
X134193181Y-138048461D01*
X134196959Y-138128237D01*
X134196959Y-138150585D01*
X134194066Y-138220657D01*
X134183676Y-138296489D01*
X134165730Y-138367786D01*
X134136509Y-138442577D01*
X134116278Y-138481078D01*
X134073687Y-138543617D01*
X134023156Y-138597461D01*
X133964684Y-138642612D01*
X133921424Y-138667140D01*
X133850932Y-138694417D01*
X133773717Y-138710275D01*
X133699436Y-138714786D01*
X133652723Y-138713033D01*
X133573823Y-138701042D01*
X133501589Y-138677690D01*
X133436020Y-138642979D01*
X133402670Y-138619179D01*
X133348816Y-138569488D01*
X133302902Y-138510987D01*
X133264928Y-138443676D01*
X133238321Y-138377410D01*
X133219316Y-138306473D01*
X133207913Y-138230865D01*
X133204112Y-138150585D01*
X133406345Y-138150585D01*
X133408982Y-138214354D01*
X133419368Y-138286941D01*
X133439684Y-138359413D01*
X133448517Y-138381709D01*
X133487276Y-138450281D01*
X133538236Y-138504127D01*
X133554940Y-138516491D01*
X133626349Y-138548176D01*
X133699436Y-138556883D01*
X133723313Y-138556059D01*
X133799218Y-138540191D01*
X133863201Y-138504127D01*
X133883004Y-138486586D01*
X133929887Y-138427482D01*
X133962119Y-138359413D01*
X133977881Y-138305716D01*
X133990873Y-138227989D01*
X133994726Y-138150585D01*
X133994726Y-138128237D01*
X133992688Y-138071382D01*
X133981989Y-137992024D01*
X133962119Y-137919776D01*
X133953367Y-137897399D01*
X133914708Y-137828727D01*
X133863567Y-137775062D01*
X133842323Y-137759863D01*
X133774843Y-137731012D01*
X133701634Y-137722305D01*
X133683642Y-137722769D01*
X133607086Y-137737194D01*
X133538602Y-137775062D01*
X133518896Y-137792505D01*
X133472093Y-137851530D01*
X133439684Y-137919776D01*
X133423568Y-137973295D01*
X133410284Y-138050876D01*
X133406345Y-138128237D01*
X133406345Y-138150585D01*
X133204112Y-138150585D01*
X133204112Y-138128237D01*
X133207022Y-138057772D01*
X133217475Y-137981705D01*
X133235530Y-137910402D01*
X133264928Y-137835878D01*
X133285062Y-137797483D01*
X133327569Y-137735089D01*
X133378133Y-137681331D01*
X133436753Y-137636210D01*
X133479888Y-137611433D01*
X133550242Y-137583879D01*
X133627377Y-137567860D01*
X133701634Y-137563303D01*
X133748049Y-137565083D01*
G37*
G36*
X133049140Y-138693171D02*
G01*
X133049140Y-138563844D01*
X132882078Y-138535267D01*
X132882078Y-137742455D01*
X133049140Y-137713879D01*
X133049140Y-137583819D01*
X132700361Y-137583819D01*
X132687172Y-137728167D01*
X132638693Y-137670093D01*
X132580178Y-137623871D01*
X132549785Y-137606534D01*
X132476967Y-137578544D01*
X132402023Y-137565372D01*
X132354879Y-137563303D01*
X132276277Y-137570516D01*
X132201008Y-137594609D01*
X132164736Y-137614594D01*
X132106672Y-137664673D01*
X132064666Y-137725818D01*
X132045302Y-137768101D01*
X132001269Y-137702945D01*
X131947757Y-137648712D01*
X131906816Y-137618624D01*
X131838174Y-137584913D01*
X131761392Y-137566761D01*
X131705682Y-137563303D01*
X131625150Y-137570585D01*
X131553549Y-137592429D01*
X131483672Y-137634411D01*
X131437137Y-137679807D01*
X131394020Y-137745226D01*
X131366399Y-137814526D01*
X131348209Y-137895082D01*
X131340125Y-137973087D01*
X131338585Y-138029685D01*
X131338585Y-138535267D01*
X131171523Y-138563844D01*
X131171523Y-138693171D01*
X131708979Y-138693171D01*
X131708979Y-138563844D01*
X131541917Y-138535267D01*
X131541917Y-138027853D01*
X131545443Y-137951787D01*
X131559769Y-137873576D01*
X131591505Y-137804471D01*
X131598337Y-137795578D01*
X131657903Y-137748995D01*
X131732051Y-137729098D01*
X131765399Y-137727434D01*
X131838712Y-137737893D01*
X131904995Y-137772827D01*
X131935026Y-137801806D01*
X131978230Y-137868345D01*
X132002333Y-137941143D01*
X132009398Y-137988652D01*
X132009398Y-138535267D01*
X131842336Y-138563844D01*
X131842336Y-138693171D01*
X132378327Y-138693171D01*
X132378327Y-138563844D01*
X132211265Y-138535267D01*
X132211265Y-138027853D01*
X132215872Y-137946699D01*
X132231801Y-137872096D01*
X132265933Y-137804201D01*
X132269516Y-137799608D01*
X132330054Y-137750271D01*
X132403974Y-137729196D01*
X132436945Y-137727434D01*
X132511487Y-137734727D01*
X132581394Y-137760922D01*
X132588986Y-137765536D01*
X132644188Y-137814316D01*
X132679844Y-137871782D01*
X132679844Y-138535267D01*
X132512782Y-138563844D01*
X132512782Y-138693171D01*
X133049140Y-138693171D01*
G37*
G36*
X131098250Y-138821398D02*
G01*
X130474698Y-137200236D01*
X130304705Y-137200236D01*
X130927158Y-138821398D01*
X131098250Y-138821398D01*
G37*
G36*
X130170982Y-138693171D02*
G01*
X130170982Y-138563844D01*
X130003920Y-138535267D01*
X130003920Y-137359238D01*
X130170982Y-137330295D01*
X130170982Y-137200236D01*
X129634991Y-137200236D01*
X129634991Y-137330295D01*
X129802053Y-137359238D01*
X129802053Y-137875079D01*
X129088376Y-137875079D01*
X129088376Y-137359238D01*
X129255438Y-137330295D01*
X129255438Y-137200236D01*
X129088376Y-137200236D01*
X128886142Y-137200236D01*
X128719080Y-137200236D01*
X128719080Y-137330295D01*
X128886142Y-137359238D01*
X128886142Y-138535267D01*
X128719080Y-138563844D01*
X128719080Y-138693171D01*
X129255438Y-138693171D01*
X129255438Y-138563844D01*
X129088376Y-138535267D01*
X129088376Y-138033715D01*
X129802053Y-138033715D01*
X129802053Y-138535267D01*
X129634991Y-138563844D01*
X129634991Y-138693171D01*
X130170982Y-138693171D01*
G37*
G36*
X128553117Y-137330295D02*
G01*
X128386055Y-137359238D01*
X128386055Y-138535267D01*
X128553117Y-138563844D01*
X128553117Y-138693171D01*
X127845668Y-138693171D01*
X127776869Y-138690532D01*
X127700379Y-138680400D01*
X127619508Y-138658974D01*
X127547648Y-138627205D01*
X127484799Y-138585093D01*
X127453544Y-138556477D01*
X127403535Y-138490210D01*
X127373452Y-138422348D01*
X127356131Y-138345263D01*
X127351560Y-138273683D01*
X127554408Y-138273683D01*
X127559194Y-138332760D01*
X127584319Y-138407979D01*
X127630978Y-138467124D01*
X127690728Y-138505920D01*
X127765197Y-138528613D01*
X127845668Y-138535267D01*
X128184188Y-138535267D01*
X128184188Y-137992682D01*
X127814893Y-137992682D01*
X127738799Y-138000169D01*
X127668714Y-138026754D01*
X127623744Y-138061786D01*
X127582618Y-138123108D01*
X127560607Y-138196806D01*
X127554408Y-138273683D01*
X127351560Y-138273683D01*
X127351443Y-138271852D01*
X127351998Y-138249005D01*
X127362687Y-138172740D01*
X127386980Y-138102225D01*
X127391492Y-138092609D01*
X127432724Y-138026422D01*
X127486997Y-137970700D01*
X127503518Y-137957792D01*
X127567652Y-137921357D01*
X127641603Y-137898526D01*
X127592304Y-137876957D01*
X127527887Y-137835157D01*
X127474907Y-137782023D01*
X127453492Y-137751888D01*
X127422292Y-137681558D01*
X127411893Y-137604336D01*
X127411984Y-137599940D01*
X127614126Y-137599940D01*
X127615763Y-137632825D01*
X127635339Y-137707861D01*
X127681170Y-137771764D01*
X127712501Y-137796318D01*
X127781291Y-137825918D01*
X127857025Y-137834779D01*
X128184188Y-137834779D01*
X128184188Y-137359238D01*
X127909415Y-137359238D01*
X127833993Y-137363991D01*
X127756372Y-137382708D01*
X127689963Y-137419322D01*
X127656784Y-137453005D01*
X127623087Y-137524050D01*
X127614126Y-137599940D01*
X127411984Y-137599940D01*
X127412408Y-137579453D01*
X127422325Y-137498607D01*
X127444865Y-137427474D01*
X127486081Y-137358070D01*
X127543784Y-137301353D01*
X127596712Y-137266989D01*
X127667578Y-137235884D01*
X127748261Y-137214456D01*
X127825232Y-137203791D01*
X127909415Y-137200236D01*
X128386055Y-137200236D01*
X128553117Y-137200236D01*
X128553117Y-137330295D01*
G37*
G36*
X126751957Y-137565083D02*
G01*
X126830544Y-137577258D01*
X126902756Y-137600967D01*
X126968592Y-137636210D01*
X127002057Y-137660229D01*
X127056117Y-137710271D01*
X127102237Y-137769065D01*
X127140417Y-137836611D01*
X127163971Y-137894143D01*
X127185754Y-137973265D01*
X127197089Y-138048461D01*
X127200867Y-138128237D01*
X127200867Y-138150585D01*
X127197974Y-138220657D01*
X127187584Y-138296489D01*
X127169638Y-138367786D01*
X127140417Y-138442577D01*
X127120186Y-138481078D01*
X127077595Y-138543617D01*
X127027064Y-138597461D01*
X126968592Y-138642612D01*
X126925332Y-138667140D01*
X126854840Y-138694417D01*
X126777624Y-138710275D01*
X126703344Y-138714786D01*
X126656631Y-138713033D01*
X126577731Y-138701042D01*
X126505497Y-138677690D01*
X126439928Y-138642979D01*
X126406578Y-138619179D01*
X126352723Y-138569488D01*
X126306810Y-138510987D01*
X126268836Y-138443676D01*
X126242229Y-138377410D01*
X126223224Y-138306473D01*
X126211821Y-138230865D01*
X126208020Y-138150585D01*
X126410253Y-138150585D01*
X126412890Y-138214354D01*
X126423276Y-138286941D01*
X126443592Y-138359413D01*
X126452425Y-138381709D01*
X126491183Y-138450281D01*
X126542144Y-138504127D01*
X126558848Y-138516491D01*
X126630257Y-138548176D01*
X126703344Y-138556883D01*
X126727221Y-138556059D01*
X126803125Y-138540191D01*
X126867109Y-138504127D01*
X126886912Y-138486586D01*
X126933795Y-138427482D01*
X126966027Y-138359413D01*
X126981789Y-138305716D01*
X126994781Y-138227989D01*
X126998634Y-138150585D01*
X126998634Y-138128237D01*
X126996596Y-138071382D01*
X126985897Y-137992024D01*
X126966027Y-137919776D01*
X126957275Y-137897399D01*
X126918616Y-137828727D01*
X126867475Y-137775062D01*
X126846230Y-137759863D01*
X126778751Y-137731012D01*
X126705542Y-137722305D01*
X126687550Y-137722769D01*
X126610994Y-137737194D01*
X126542510Y-137775062D01*
X126522804Y-137792505D01*
X126476001Y-137851530D01*
X126443592Y-137919776D01*
X126427476Y-137973295D01*
X126414192Y-138050876D01*
X126410253Y-138128237D01*
X126410253Y-138150585D01*
X126208020Y-138150585D01*
X126208020Y-138128237D01*
X126210930Y-138057772D01*
X126221383Y-137981705D01*
X126239437Y-137910402D01*
X126268836Y-137835878D01*
X126288970Y-137797483D01*
X126331477Y-137735089D01*
X126382041Y-137681331D01*
X126440661Y-137636210D01*
X126483796Y-137611433D01*
X126554150Y-137583879D01*
X126631285Y-137567860D01*
X126705542Y-137563303D01*
X126751957Y-137565083D01*
G37*
G36*
X125847151Y-139141234D02*
G01*
X125909066Y-139135372D01*
X125967318Y-139124748D01*
X125946802Y-138965746D01*
X125898442Y-138969409D01*
X125856310Y-138970875D01*
X125785155Y-138951698D01*
X125751530Y-138921782D01*
X125709976Y-138859384D01*
X125678240Y-138792626D01*
X125676059Y-138787326D01*
X125627699Y-138670456D01*
X126020441Y-137730365D01*
X126139509Y-137713879D01*
X126139509Y-137583819D01*
X125673861Y-137583819D01*
X125673861Y-137713879D01*
X125808316Y-137734395D01*
X125591795Y-138289071D01*
X125539771Y-138433785D01*
X125533543Y-138433785D01*
X125277088Y-137734395D01*
X125418505Y-137713879D01*
X125418505Y-137583819D01*
X124962381Y-137583819D01*
X124962381Y-137713879D01*
X125077053Y-137730365D01*
X125514126Y-138863530D01*
X125545794Y-138934703D01*
X125583098Y-138998469D01*
X125588498Y-139006412D01*
X125636766Y-139062649D01*
X125695110Y-139105330D01*
X125764627Y-139132258D01*
X125841612Y-139141199D01*
X125847151Y-139141234D01*
G37*
G36*
X124305856Y-137223683D02*
G01*
X124138794Y-137252626D01*
X124138794Y-137704720D01*
X124149017Y-137692092D01*
X124201830Y-137640741D01*
X124267754Y-137599573D01*
X124291797Y-137589124D01*
X124365207Y-137569289D01*
X124441411Y-137563303D01*
X124458295Y-137563594D01*
X124538166Y-137573762D01*
X124610451Y-137598455D01*
X124675152Y-137637675D01*
X124693018Y-137652148D01*
X124746713Y-137708018D01*
X124791393Y-137775624D01*
X124823895Y-137846503D01*
X124827051Y-137854927D01*
X124848689Y-137925434D01*
X124863916Y-138001484D01*
X124872732Y-138083074D01*
X124875186Y-138159011D01*
X124875186Y-138180627D01*
X124873383Y-138239136D01*
X124865369Y-138312821D01*
X124848689Y-138389805D01*
X124823895Y-138460529D01*
X124817307Y-138475300D01*
X124779039Y-138543013D01*
X124731898Y-138600493D01*
X124675884Y-138647741D01*
X124657342Y-138659723D01*
X124590653Y-138691150D01*
X124516450Y-138709483D01*
X124443243Y-138714786D01*
X124411565Y-138713838D01*
X124334896Y-138702498D01*
X124261526Y-138675951D01*
X124237510Y-138662807D01*
X124176642Y-138616484D01*
X124128536Y-138560913D01*
X124112050Y-138693171D01*
X123769865Y-138693171D01*
X123769865Y-138563844D01*
X123936927Y-138535267D01*
X123936927Y-138393851D01*
X124138794Y-138393851D01*
X124141311Y-138398489D01*
X124184132Y-138460163D01*
X124240277Y-138509622D01*
X124248082Y-138514591D01*
X124318562Y-138542801D01*
X124391952Y-138550655D01*
X124400855Y-138550556D01*
X124481856Y-138538663D01*
X124554097Y-138502688D01*
X124604443Y-138449172D01*
X124627726Y-138408810D01*
X124653618Y-138339622D01*
X124668671Y-138260059D01*
X124672953Y-138180627D01*
X124672953Y-138159011D01*
X124670519Y-138089376D01*
X124660932Y-138011035D01*
X124642179Y-137934064D01*
X124631792Y-137904762D01*
X124597588Y-137838288D01*
X124549122Y-137782389D01*
X124532933Y-137769509D01*
X124462845Y-137736504D01*
X124390120Y-137727434D01*
X124384694Y-137727474D01*
X124309062Y-137737692D01*
X124240277Y-137768467D01*
X124183582Y-137816461D01*
X124138794Y-137879109D01*
X124138794Y-138393851D01*
X123936927Y-138393851D01*
X123936927Y-137093624D01*
X124138794Y-137093624D01*
X124305856Y-137093624D01*
X124305856Y-137223683D01*
G37*
G36*
X123607200Y-138693171D02*
G01*
X123607200Y-138554685D01*
X123117737Y-138011367D01*
X123067154Y-137953213D01*
X123020026Y-137895609D01*
X122981816Y-137844671D01*
X122942049Y-137782573D01*
X122912939Y-137719008D01*
X122896253Y-137646909D01*
X122893522Y-137602138D01*
X122903053Y-137523329D01*
X122931647Y-137454516D01*
X122961299Y-137414193D01*
X123020101Y-137367533D01*
X123095389Y-137342408D01*
X123154740Y-137337623D01*
X123231097Y-137345351D01*
X123302114Y-137371703D01*
X123359537Y-137416757D01*
X123401254Y-137478703D01*
X123424152Y-137548541D01*
X123432524Y-137622408D01*
X123432810Y-137640240D01*
X123626617Y-137640240D01*
X123628449Y-137634011D01*
X123624570Y-137555758D01*
X123608814Y-137482657D01*
X123581179Y-137414708D01*
X123574227Y-137401736D01*
X123528578Y-137336025D01*
X123470722Y-137280443D01*
X123407531Y-137238704D01*
X123335253Y-137207020D01*
X123263289Y-137188537D01*
X123184776Y-137179559D01*
X123147779Y-137178621D01*
X123071185Y-137182881D01*
X122993490Y-137197607D01*
X122923594Y-137222852D01*
X122904147Y-137232476D01*
X122839415Y-137274177D01*
X122785765Y-137325229D01*
X122746610Y-137379755D01*
X122715114Y-137447064D01*
X122696691Y-137521041D01*
X122691289Y-137594078D01*
X122698373Y-137670773D01*
X122717767Y-137741919D01*
X122723529Y-137757110D01*
X122754682Y-137823560D01*
X122795751Y-137891341D01*
X122818051Y-137923073D01*
X122863605Y-137982633D01*
X122915133Y-138044445D01*
X122967161Y-138102591D01*
X123359904Y-138530138D01*
X123357706Y-138535267D01*
X122827576Y-138535267D01*
X122811456Y-138364175D01*
X122639998Y-138364175D01*
X122639998Y-138693171D01*
X123607200Y-138693171D01*
G37*
G36*
X122012050Y-138714786D02*
G01*
X122088278Y-138710278D01*
X122166261Y-138694906D01*
X122238096Y-138668624D01*
X122301707Y-138631606D01*
X122359349Y-138579176D01*
X122394534Y-138531604D01*
X122426310Y-138464030D01*
X122444059Y-138386240D01*
X122448023Y-138306656D01*
X122445825Y-138300428D01*
X122263376Y-138300428D01*
X122255064Y-138377270D01*
X122227037Y-138446779D01*
X122193034Y-138489106D01*
X122129230Y-138532989D01*
X122058527Y-138553640D01*
X122012050Y-138556883D01*
X121937525Y-138548082D01*
X121868522Y-138518069D01*
X121813114Y-138466757D01*
X121772857Y-138396708D01*
X121750761Y-138319428D01*
X121742682Y-138238803D01*
X121742406Y-138219461D01*
X121748057Y-138142262D01*
X121767591Y-138066342D01*
X121801079Y-138000797D01*
X121813847Y-137983157D01*
X121869204Y-137930802D01*
X121937549Y-137900179D01*
X122010951Y-137891199D01*
X122085104Y-137895442D01*
X122157192Y-137913113D01*
X122183874Y-137927103D01*
X122235188Y-137979550D01*
X122262276Y-138037012D01*
X122430438Y-138019427D01*
X122344342Y-137200236D01*
X121555926Y-137200236D01*
X121555926Y-137495526D01*
X121707601Y-137495526D01*
X121727018Y-137379755D01*
X122172884Y-137379755D01*
X122221244Y-137798875D01*
X122159033Y-137759742D01*
X122154565Y-137757476D01*
X122084074Y-137730655D01*
X122076163Y-137728533D01*
X122002025Y-137716850D01*
X121983473Y-137716077D01*
X121909207Y-137720385D01*
X121833759Y-137736729D01*
X121765753Y-137765236D01*
X121746802Y-137776161D01*
X121683790Y-137824206D01*
X121631774Y-137884719D01*
X121594028Y-137950550D01*
X121565821Y-138025240D01*
X121549367Y-138099190D01*
X121541375Y-138179516D01*
X121540539Y-138217263D01*
X121544799Y-138298536D01*
X121557579Y-138373781D01*
X121581772Y-138450317D01*
X121594394Y-138478847D01*
X121632870Y-138543856D01*
X121681434Y-138599204D01*
X121740089Y-138644892D01*
X121753030Y-138652870D01*
X121823505Y-138685521D01*
X121895070Y-138704568D01*
X121974343Y-138713819D01*
X122012050Y-138714786D01*
G37*
G36*
X120904164Y-138714786D02*
G01*
X120980392Y-138710278D01*
X121058375Y-138694906D01*
X121130211Y-138668624D01*
X121193821Y-138631606D01*
X121251463Y-138579176D01*
X121286648Y-138531604D01*
X121318424Y-138464030D01*
X121336173Y-138386240D01*
X121340138Y-138306656D01*
X121337939Y-138300428D01*
X121155490Y-138300428D01*
X121147178Y-138377270D01*
X121119151Y-138446779D01*
X121085148Y-138489106D01*
X121021344Y-138532989D01*
X120950642Y-138553640D01*
X120904164Y-138556883D01*
X120829639Y-138548082D01*
X120760637Y-138518069D01*
X120705228Y-138466757D01*
X120664971Y-138396708D01*
X120642875Y-138319428D01*
X120634796Y-138238803D01*
X120634520Y-138219461D01*
X120640171Y-138142262D01*
X120659706Y-138066342D01*
X120693194Y-138000797D01*
X120705961Y-137983157D01*
X120761318Y-137930802D01*
X120829663Y-137900179D01*
X120903065Y-137891199D01*
X120977219Y-137895442D01*
X121049307Y-137913113D01*
X121075989Y-137927103D01*
X121127303Y-137979550D01*
X121154391Y-138037012D01*
X121322552Y-138019427D01*
X121236456Y-137200236D01*
X120448041Y-137200236D01*
X120448041Y-137495526D01*
X120599715Y-137495526D01*
X120619133Y-137379755D01*
X121064998Y-137379755D01*
X121113358Y-137798875D01*
X121051148Y-137759742D01*
X121046680Y-137757476D01*
X120976188Y-137730655D01*
X120968278Y-137728533D01*
X120894139Y-137716850D01*
X120875588Y-137716077D01*
X120801322Y-137720385D01*
X120725873Y-137736729D01*
X120657867Y-137765236D01*
X120638916Y-137776161D01*
X120575904Y-137824206D01*
X120523888Y-137884719D01*
X120486142Y-137950550D01*
X120457935Y-138025240D01*
X120441481Y-138099190D01*
X120433489Y-138179516D01*
X120432653Y-138217263D01*
X120436913Y-138298536D01*
X120449693Y-138373781D01*
X120473886Y-138450317D01*
X120486509Y-138478847D01*
X120524984Y-138543856D01*
X120573549Y-138599204D01*
X120632203Y-138644892D01*
X120645145Y-138652870D01*
X120715620Y-138685521D01*
X120787184Y-138704568D01*
X120866457Y-138713819D01*
X120904164Y-138714786D01*
G37*
G36*
X120331537Y-138821398D02*
G01*
X119707985Y-137200236D01*
X119537992Y-137200236D01*
X120160445Y-138821398D01*
X120331537Y-138821398D01*
G37*
G36*
X118813134Y-137564707D02*
G01*
X118890064Y-137577381D01*
X118958770Y-137603237D01*
X118983024Y-137616593D01*
X119044653Y-137663316D01*
X119093592Y-137719008D01*
X119112276Y-137583819D01*
X119452629Y-137583819D01*
X119452629Y-137713879D01*
X119285567Y-137742455D01*
X119285567Y-138960616D01*
X119442371Y-138989559D01*
X119442371Y-139119619D01*
X118907112Y-139119619D01*
X118907112Y-138989559D01*
X119083334Y-138960616D01*
X119083334Y-138578498D01*
X119072964Y-138590848D01*
X119019209Y-138640817D01*
X118951809Y-138680348D01*
X118916636Y-138693767D01*
X118844991Y-138709943D01*
X118771558Y-138714786D01*
X118763146Y-138714721D01*
X118683204Y-138706864D01*
X118610848Y-138685912D01*
X118540015Y-138647741D01*
X118534037Y-138643477D01*
X118474036Y-138589816D01*
X118428655Y-138530289D01*
X118392004Y-138460529D01*
X118374324Y-138414075D01*
X118354663Y-138339178D01*
X118343232Y-138258021D01*
X118339981Y-138180627D01*
X118542946Y-138180627D01*
X118544753Y-138231313D01*
X118555160Y-138306086D01*
X118577926Y-138380899D01*
X118616952Y-138452469D01*
X118631374Y-138471129D01*
X118688332Y-138520073D01*
X118758958Y-138548624D01*
X118834206Y-138556883D01*
X118839765Y-138556846D01*
X118916546Y-138547541D01*
X118984782Y-138519514D01*
X119039828Y-138474085D01*
X119083334Y-138413268D01*
X119083334Y-137872881D01*
X119042724Y-137815699D01*
X118984049Y-137766269D01*
X118980178Y-137763880D01*
X118911725Y-137735967D01*
X118836404Y-137727434D01*
X118812545Y-137728299D01*
X118736971Y-137744938D01*
X118673738Y-137782755D01*
X118654155Y-137801063D01*
X118607793Y-137863173D01*
X118575919Y-137935163D01*
X118557147Y-138005251D01*
X118546166Y-138082526D01*
X118542946Y-138159011D01*
X118542946Y-138180627D01*
X118339981Y-138180627D01*
X118339981Y-138159011D01*
X118342435Y-138082663D01*
X118351251Y-138000775D01*
X118366478Y-137924612D01*
X118391272Y-137845770D01*
X118401294Y-137821219D01*
X118436231Y-137753824D01*
X118483615Y-137689954D01*
X118540015Y-137637675D01*
X118558639Y-137624384D01*
X118625787Y-137589522D01*
X118700734Y-137569186D01*
X118774855Y-137563303D01*
X118813134Y-137564707D01*
G37*
G36*
X118186840Y-138693171D02*
G01*
X118186840Y-138563844D01*
X118019778Y-138535267D01*
X118019778Y-137742455D01*
X118186840Y-137713879D01*
X118186840Y-137583819D01*
X117839527Y-137583819D01*
X117821941Y-137725236D01*
X117820110Y-137744653D01*
X117778082Y-137681701D01*
X117724708Y-137627565D01*
X117703606Y-137611663D01*
X117634263Y-137576952D01*
X117561554Y-137563728D01*
X117544970Y-137563303D01*
X117480124Y-137568799D01*
X117432496Y-137579423D01*
X117458874Y-137767368D01*
X117599558Y-137758942D01*
X117673106Y-137765536D01*
X117734014Y-137795578D01*
X117787247Y-137851078D01*
X117817911Y-137906586D01*
X117817911Y-138535267D01*
X117650849Y-138563844D01*
X117650849Y-138693171D01*
X118186840Y-138693171D01*
G37*
G36*
X116877707Y-137565083D02*
G01*
X116956294Y-137577258D01*
X117028506Y-137600967D01*
X117094342Y-137636210D01*
X117127807Y-137660229D01*
X117181867Y-137710271D01*
X117227987Y-137769065D01*
X117266167Y-137836611D01*
X117289721Y-137894143D01*
X117311504Y-137973265D01*
X117322839Y-138048461D01*
X117326617Y-138128237D01*
X117326617Y-138150585D01*
X117323724Y-138220657D01*
X117313334Y-138296489D01*
X117295388Y-138367786D01*
X117266167Y-138442577D01*
X117245936Y-138481078D01*
X117203345Y-138543617D01*
X117152814Y-138597461D01*
X117094342Y-138642612D01*
X117051082Y-138667140D01*
X116980590Y-138694417D01*
X116903375Y-138710275D01*
X116829094Y-138714786D01*
X116782381Y-138713033D01*
X116703481Y-138701042D01*
X116631247Y-138677690D01*
X116565678Y-138642979D01*
X116532328Y-138619179D01*
X116478474Y-138569488D01*
X116432560Y-138510987D01*
X116394586Y-138443676D01*
X116367979Y-138377410D01*
X116348974Y-138306473D01*
X116337571Y-138230865D01*
X116333770Y-138150585D01*
X116536003Y-138150585D01*
X116538640Y-138214354D01*
X116549026Y-138286941D01*
X116569342Y-138359413D01*
X116578175Y-138381709D01*
X116616934Y-138450281D01*
X116667894Y-138504127D01*
X116684598Y-138516491D01*
X116756007Y-138548176D01*
X116829094Y-138556883D01*
X116852971Y-138556059D01*
X116928876Y-138540191D01*
X116992859Y-138504127D01*
X117012662Y-138486586D01*
X117059545Y-138427482D01*
X117091777Y-138359413D01*
X117107539Y-138305716D01*
X117120531Y-138227989D01*
X117124384Y-138150585D01*
X117124384Y-138128237D01*
X117122346Y-138071382D01*
X117111647Y-137992024D01*
X117091777Y-137919776D01*
X117083025Y-137897399D01*
X117044366Y-137828727D01*
X116993225Y-137775062D01*
X116971981Y-137759863D01*
X116904501Y-137731012D01*
X116831292Y-137722305D01*
X116813300Y-137722769D01*
X116736744Y-137737194D01*
X116668260Y-137775062D01*
X116648554Y-137792505D01*
X116601751Y-137851530D01*
X116569342Y-137919776D01*
X116553226Y-137973295D01*
X116539942Y-138050876D01*
X116536003Y-138128237D01*
X116536003Y-138150585D01*
X116333770Y-138150585D01*
X116333770Y-138128237D01*
X116336680Y-138057772D01*
X116347133Y-137981705D01*
X116365188Y-137910402D01*
X116394586Y-137835878D01*
X116414720Y-137797483D01*
X116457227Y-137735089D01*
X116507791Y-137681331D01*
X116566411Y-137636210D01*
X116609546Y-137611433D01*
X116679900Y-137583879D01*
X116757035Y-137567860D01*
X116831292Y-137563303D01*
X116877707Y-137565083D01*
G37*
G36*
X116197116Y-139141234D02*
G01*
X116256467Y-139136471D01*
X116312154Y-139122916D01*
X116298599Y-138969043D01*
X116250239Y-138978202D01*
X116197116Y-138982232D01*
X116125945Y-138957296D01*
X116101495Y-138929475D01*
X116072760Y-138857605D01*
X116065958Y-138784395D01*
X116065958Y-137742455D01*
X116233020Y-137713879D01*
X116233020Y-137583819D01*
X115864091Y-137583819D01*
X115864091Y-138784395D01*
X115869609Y-138865201D01*
X115889010Y-138944339D01*
X115922378Y-139011016D01*
X115952385Y-139048544D01*
X116014065Y-139097423D01*
X116089199Y-139128199D01*
X116168321Y-139140419D01*
X116197116Y-139141234D01*
G37*
G36*
X116076216Y-137309779D02*
G01*
X116076216Y-137093624D01*
X115864091Y-137093624D01*
X115864091Y-137309779D01*
X116076216Y-137309779D01*
G37*
G36*
X115182117Y-137563585D02*
G01*
X115259504Y-137573453D01*
X115332956Y-137597416D01*
X115402472Y-137635477D01*
X115428821Y-137654339D01*
X115488835Y-137708657D01*
X115535689Y-137766291D01*
X115575762Y-137832214D01*
X115601172Y-137888306D01*
X115624672Y-137965113D01*
X115636899Y-138037814D01*
X115640975Y-138114681D01*
X115640975Y-138160110D01*
X115638798Y-138220170D01*
X115629124Y-138296042D01*
X115608989Y-138375650D01*
X115579059Y-138449172D01*
X115558344Y-138486880D01*
X115514745Y-138548037D01*
X115463032Y-138600559D01*
X115403205Y-138644444D01*
X115359073Y-138668349D01*
X115287612Y-138694934D01*
X115209833Y-138710390D01*
X115135392Y-138714786D01*
X115126844Y-138714747D01*
X115045614Y-138710111D01*
X114972113Y-138697746D01*
X114900186Y-138675219D01*
X114870451Y-138662425D01*
X114802015Y-138625141D01*
X114742650Y-138578498D01*
X114821784Y-138446974D01*
X114825331Y-138450158D01*
X114887624Y-138495267D01*
X114955507Y-138527574D01*
X114985385Y-138537534D01*
X115062011Y-138552761D01*
X115135392Y-138556883D01*
X115152674Y-138556468D01*
X115227106Y-138543545D01*
X115295493Y-138509622D01*
X115307722Y-138500451D01*
X115360653Y-138445325D01*
X115397709Y-138379929D01*
X115411501Y-138342708D01*
X115428650Y-138267444D01*
X115434712Y-138190885D01*
X115431781Y-138185756D01*
X114711875Y-138185756D01*
X114711875Y-138059360D01*
X114712557Y-138027853D01*
X114914108Y-138027853D01*
X115425553Y-138027853D01*
X115427751Y-138022724D01*
X115427017Y-138017339D01*
X115410257Y-137941025D01*
X115380490Y-137868851D01*
X115345358Y-137815015D01*
X115289265Y-137761873D01*
X115238475Y-137734825D01*
X115166167Y-137722305D01*
X115098086Y-137729247D01*
X115026216Y-137758575D01*
X114982568Y-137795431D01*
X114942318Y-137857860D01*
X114921161Y-137925179D01*
X114914108Y-138001108D01*
X114914108Y-138027853D01*
X114712557Y-138027853D01*
X114712677Y-138022335D01*
X114720340Y-137943548D01*
X114736118Y-137871020D01*
X114763166Y-137797776D01*
X114800089Y-137733033D01*
X114851944Y-137673055D01*
X114915574Y-137624852D01*
X114941528Y-137610427D01*
X115013127Y-137582778D01*
X115085763Y-137568172D01*
X115166167Y-137563303D01*
X115182117Y-137563585D01*
G37*
G36*
X114012486Y-138714786D02*
G01*
X114094290Y-138709222D01*
X114169892Y-138692529D01*
X114239293Y-138664709D01*
X114275169Y-138644444D01*
X114334053Y-138600559D01*
X114390167Y-138541668D01*
X114432288Y-138479552D01*
X114448459Y-138449172D01*
X114478212Y-138375650D01*
X114498228Y-138296042D01*
X114507845Y-138220170D01*
X114510008Y-138160110D01*
X114510008Y-138116880D01*
X114506299Y-138039989D01*
X114495171Y-137967220D01*
X114473783Y-137890281D01*
X114450657Y-137834046D01*
X114412951Y-137767740D01*
X114367015Y-137709780D01*
X114312848Y-137660166D01*
X114279199Y-137636210D01*
X114212925Y-137600967D01*
X114139812Y-137577258D01*
X114059859Y-137565083D01*
X114012486Y-137563303D01*
X113931900Y-137567596D01*
X113857754Y-137580476D01*
X113783632Y-137604562D01*
X113777280Y-137607267D01*
X113711615Y-137641388D01*
X113648769Y-137687498D01*
X113607653Y-137728167D01*
X113602524Y-137994880D01*
X113760427Y-137994880D01*
X113795232Y-137801074D01*
X113854348Y-137757033D01*
X113882426Y-137743921D01*
X113955070Y-137725345D01*
X114005525Y-137722305D01*
X114080177Y-137732543D01*
X114150824Y-137766235D01*
X114163794Y-137775794D01*
X114217670Y-137829219D01*
X114257400Y-137891260D01*
X114270040Y-137918310D01*
X114293035Y-137987965D01*
X114305417Y-138063390D01*
X114307775Y-138116880D01*
X114307775Y-138160110D01*
X114303619Y-138239506D01*
X114289606Y-138317628D01*
X114272604Y-138370404D01*
X114238712Y-138436087D01*
X114190987Y-138491946D01*
X114171121Y-138508157D01*
X114103480Y-138543131D01*
X114030471Y-138556455D01*
X114013585Y-138556883D01*
X113936042Y-138547571D01*
X113865516Y-138516717D01*
X113843592Y-138500463D01*
X113794314Y-138443031D01*
X113765093Y-138369470D01*
X113760427Y-138345491D01*
X113578710Y-138345491D01*
X113576879Y-138351719D01*
X113588665Y-138427118D01*
X113615688Y-138498527D01*
X113633299Y-138530138D01*
X113682168Y-138592389D01*
X113740051Y-138640405D01*
X113779478Y-138664228D01*
X113849657Y-138693012D01*
X113922472Y-138708812D01*
X114003873Y-138714737D01*
X114012486Y-138714786D01*
G37*
G36*
X113029164Y-138710756D02*
G01*
X113107777Y-138702228D01*
X113179810Y-138673471D01*
X113224436Y-138638582D01*
X113268417Y-138572018D01*
X113289562Y-138497973D01*
X113296540Y-138416893D01*
X113296610Y-138407040D01*
X113296610Y-137733296D01*
X113472098Y-137733296D01*
X113472098Y-137583819D01*
X113296610Y-137583819D01*
X113296610Y-137316007D01*
X113094743Y-137316007D01*
X113094743Y-137583819D01*
X112853676Y-137583819D01*
X112853676Y-137733296D01*
X113094743Y-137733296D01*
X113094743Y-138407040D01*
X113085748Y-138480112D01*
X113062870Y-138525009D01*
X112997047Y-138561772D01*
X112977873Y-138563111D01*
X112903470Y-138557315D01*
X112898006Y-138556517D01*
X112829129Y-138544427D01*
X112801285Y-138676684D01*
X112875230Y-138694467D01*
X112909729Y-138700498D01*
X112982765Y-138709063D01*
X113029164Y-138710756D01*
G37*
G36*
X112591359Y-138141426D02*
G01*
X112591359Y-137983523D01*
X112089806Y-137983523D01*
X112089806Y-138141426D01*
X112591359Y-138141426D01*
G37*
G36*
X111462048Y-137565766D02*
G01*
X111538685Y-137575468D01*
X111616463Y-137594444D01*
X111658726Y-137609488D01*
X111725710Y-137641886D01*
X111790486Y-137686401D01*
X111790486Y-137940658D01*
X111634782Y-137940658D01*
X111613166Y-137785686D01*
X111588742Y-137770008D01*
X111519743Y-137739158D01*
X111475046Y-137728246D01*
X111398843Y-137722305D01*
X111365475Y-137723656D01*
X111290020Y-137739809D01*
X111227018Y-137777626D01*
X111212678Y-137792161D01*
X111175933Y-137859206D01*
X111165835Y-137933331D01*
X111165835Y-138042141D01*
X111364038Y-138042141D01*
X111401562Y-138042822D01*
X111481093Y-138049336D01*
X111553842Y-138062748D01*
X111626722Y-138085739D01*
X111678265Y-138109713D01*
X111743472Y-138153831D01*
X111794150Y-138207738D01*
X111816705Y-138243336D01*
X111843896Y-138316331D01*
X111852036Y-138391653D01*
X111851244Y-138419895D01*
X111839362Y-138497320D01*
X111809437Y-138570500D01*
X111761910Y-138630156D01*
X111725065Y-138658917D01*
X111658881Y-138690901D01*
X111579598Y-138709497D01*
X111498128Y-138714786D01*
X111455252Y-138712402D01*
X111378601Y-138695323D01*
X111311282Y-138664960D01*
X111279352Y-138645400D01*
X111217330Y-138597010D01*
X111165103Y-138540397D01*
X111157775Y-138612204D01*
X111156778Y-138619016D01*
X111143487Y-138693171D01*
X110853327Y-138693171D01*
X110853327Y-138563844D01*
X110961038Y-138552853D01*
X110963602Y-138511820D01*
X110963969Y-138469688D01*
X110963969Y-138180627D01*
X111165835Y-138180627D01*
X111165835Y-138381395D01*
X111175550Y-138398035D01*
X111225132Y-138455035D01*
X111284904Y-138497532D01*
X111316696Y-138513842D01*
X111389732Y-138537605D01*
X111468452Y-138545526D01*
X111535014Y-138539177D01*
X111605106Y-138507057D01*
X111634283Y-138470118D01*
X111650169Y-138395683D01*
X111649557Y-138380434D01*
X111628144Y-138308343D01*
X111580560Y-138247305D01*
X111524226Y-138209343D01*
X111451442Y-138187138D01*
X111370999Y-138180627D01*
X111165835Y-138180627D01*
X110963969Y-138180627D01*
X110963969Y-137935529D01*
X110969473Y-137860969D01*
X110989246Y-137785504D01*
X111028678Y-137713032D01*
X111079007Y-137659657D01*
X111093682Y-137647989D01*
X111159192Y-137608845D01*
X111235602Y-137581746D01*
X111311401Y-137567914D01*
X111395546Y-137563303D01*
X111462048Y-137565766D01*
G37*
G36*
X110706781Y-138693171D02*
G01*
X110706781Y-138563844D01*
X110539719Y-138535267D01*
X110539719Y-137252626D01*
X110706781Y-137223683D01*
X110706781Y-137093624D01*
X110337486Y-137093624D01*
X110337486Y-138535267D01*
X110170424Y-138563844D01*
X110170424Y-138693171D01*
X110706781Y-138693171D01*
G37*
G36*
X110033770Y-138693171D02*
G01*
X110033770Y-138563844D01*
X109866708Y-138535267D01*
X109866708Y-137742455D01*
X110033770Y-137713879D01*
X110033770Y-137583819D01*
X109664841Y-137583819D01*
X109664841Y-138535267D01*
X109497779Y-138563844D01*
X109497779Y-138693171D01*
X110033770Y-138693171D01*
G37*
G36*
X109876966Y-137309779D02*
G01*
X109876966Y-137093624D01*
X109664841Y-137093624D01*
X109664841Y-137309779D01*
X109876966Y-137309779D01*
G37*
G36*
X108899702Y-137563585D02*
G01*
X108977089Y-137573453D01*
X109050541Y-137597416D01*
X109120057Y-137635477D01*
X109146407Y-137654339D01*
X109206421Y-137708657D01*
X109253275Y-137766291D01*
X109293348Y-137832214D01*
X109318758Y-137888306D01*
X109342257Y-137965113D01*
X109354485Y-138037814D01*
X109358560Y-138114681D01*
X109358560Y-138160110D01*
X109356384Y-138220170D01*
X109346709Y-138296042D01*
X109326575Y-138375650D01*
X109296645Y-138449172D01*
X109275930Y-138486880D01*
X109232331Y-138548037D01*
X109180618Y-138600559D01*
X109120790Y-138644444D01*
X109076659Y-138668349D01*
X109005197Y-138694934D01*
X108927418Y-138710390D01*
X108852978Y-138714786D01*
X108844430Y-138714747D01*
X108763200Y-138710111D01*
X108689698Y-138697746D01*
X108617772Y-138675219D01*
X108588037Y-138662425D01*
X108519601Y-138625141D01*
X108460235Y-138578498D01*
X108539370Y-138446974D01*
X108542917Y-138450158D01*
X108605210Y-138495267D01*
X108673093Y-138527574D01*
X108702970Y-138537534D01*
X108779596Y-138552761D01*
X108852978Y-138556883D01*
X108870259Y-138556468D01*
X108944692Y-138543545D01*
X109013079Y-138509622D01*
X109025307Y-138500451D01*
X109078239Y-138445325D01*
X109115295Y-138379929D01*
X109129087Y-138342708D01*
X109146235Y-138267444D01*
X109152297Y-138190885D01*
X109149366Y-138185756D01*
X108429461Y-138185756D01*
X108429461Y-138059360D01*
X108430143Y-138027853D01*
X108631694Y-138027853D01*
X109143138Y-138027853D01*
X109145336Y-138022724D01*
X109144603Y-138017339D01*
X109127843Y-137941025D01*
X109098075Y-137868851D01*
X109062943Y-137815015D01*
X109006851Y-137761873D01*
X108956061Y-137734825D01*
X108883752Y-137722305D01*
X108815672Y-137729247D01*
X108743801Y-137758575D01*
X108700154Y-137795431D01*
X108659904Y-137857860D01*
X108638746Y-137925179D01*
X108631694Y-138001108D01*
X108631694Y-138027853D01*
X108430143Y-138027853D01*
X108430262Y-138022335D01*
X108437926Y-137943548D01*
X108453704Y-137871020D01*
X108480752Y-137797776D01*
X108517674Y-137733033D01*
X108569529Y-137673055D01*
X108633159Y-137624852D01*
X108659114Y-137610427D01*
X108730712Y-137582778D01*
X108803349Y-137568172D01*
X108883752Y-137563303D01*
X108899702Y-137563585D01*
G37*
G36*
X108272657Y-138693171D02*
G01*
X108272657Y-138563844D01*
X108105595Y-138535267D01*
X108105595Y-137742455D01*
X108272657Y-137713879D01*
X108272657Y-137583819D01*
X107924977Y-137583819D01*
X107910689Y-137748683D01*
X107865231Y-137688250D01*
X107807032Y-137635223D01*
X107771837Y-137612030D01*
X107700098Y-137580481D01*
X107627008Y-137565635D01*
X107581327Y-137563303D01*
X107506805Y-137568335D01*
X107431082Y-137586407D01*
X107357937Y-137622448D01*
X107303623Y-137668450D01*
X107260507Y-137728007D01*
X107229709Y-137801898D01*
X107212867Y-137878311D01*
X107205937Y-137952543D01*
X107205071Y-137992682D01*
X107205071Y-138535267D01*
X107038009Y-138563844D01*
X107038009Y-138693171D01*
X107574366Y-138693171D01*
X107574366Y-138563844D01*
X107407304Y-138535267D01*
X107407304Y-137997078D01*
X107411883Y-137921222D01*
X107429916Y-137846926D01*
X107465190Y-137788983D01*
X107527551Y-137746909D01*
X107599644Y-137729598D01*
X107642144Y-137727434D01*
X107719461Y-137736692D01*
X107787924Y-137764464D01*
X107796383Y-137769566D01*
X107856650Y-137819117D01*
X107900839Y-137879712D01*
X107903362Y-137884238D01*
X107903362Y-138535267D01*
X107736299Y-138563844D01*
X107736299Y-138693171D01*
X108272657Y-138693171D01*
G37*
D11*
G36*
X109563893Y-123829410D02*
G01*
X109614139Y-123826214D01*
X109665939Y-123815315D01*
X109714102Y-123796681D01*
X109757162Y-123770087D01*
X109793988Y-123735643D01*
X109822057Y-123697519D01*
X109843844Y-123652730D01*
X109858522Y-123601405D01*
X109865655Y-123549626D01*
X109866754Y-123531189D01*
X109865288Y-123527281D01*
X109736084Y-123527281D01*
X109731365Y-123579536D01*
X109718600Y-123627716D01*
X109692828Y-123671806D01*
X109690166Y-123674804D01*
X109648715Y-123705325D01*
X109599577Y-123719687D01*
X109566091Y-123721943D01*
X109517301Y-123716630D01*
X109473034Y-123697763D01*
X109436739Y-123662505D01*
X109419545Y-123630840D01*
X109405824Y-123581842D01*
X109401960Y-123532655D01*
X109401960Y-122925711D01*
X109534583Y-122907882D01*
X109534583Y-122819710D01*
X109155763Y-122819710D01*
X109155763Y-122906416D01*
X109267138Y-122925711D01*
X109267138Y-123532655D01*
X109270453Y-123586097D01*
X109280399Y-123635294D01*
X109298999Y-123684507D01*
X109301087Y-123688726D01*
X109328208Y-123731185D01*
X109362891Y-123766545D01*
X109400983Y-123792529D01*
X109449985Y-123813527D01*
X109500895Y-123825052D01*
X109551893Y-123829266D01*
X109563893Y-123829410D01*
G37*
G36*
X109025826Y-123815000D02*
G01*
X109025826Y-123728782D01*
X108872197Y-123709731D01*
X108872197Y-122963813D01*
X109028756Y-122966744D01*
X109028756Y-122882480D01*
X108737375Y-122819710D01*
X108737375Y-123709731D01*
X108584235Y-123728782D01*
X108584235Y-123815000D01*
X109025826Y-123815000D01*
G37*
G36*
X168082079Y-123829410D02*
G01*
X168132325Y-123826214D01*
X168184125Y-123815315D01*
X168232288Y-123796681D01*
X168275348Y-123770087D01*
X168312174Y-123735643D01*
X168340243Y-123697519D01*
X168362030Y-123652730D01*
X168376708Y-123601405D01*
X168383841Y-123549626D01*
X168384940Y-123531189D01*
X168383474Y-123527281D01*
X168254270Y-123527281D01*
X168249551Y-123579536D01*
X168236786Y-123627716D01*
X168211014Y-123671806D01*
X168208352Y-123674804D01*
X168166901Y-123705325D01*
X168117763Y-123719687D01*
X168084277Y-123721943D01*
X168035487Y-123716630D01*
X167991220Y-123697763D01*
X167954925Y-123662505D01*
X167937731Y-123630840D01*
X167924010Y-123581842D01*
X167920146Y-123532655D01*
X167920146Y-122925711D01*
X168052769Y-122907882D01*
X168052769Y-122819710D01*
X167673949Y-122819710D01*
X167673949Y-122906416D01*
X167785324Y-122925711D01*
X167785324Y-123532655D01*
X167788639Y-123586097D01*
X167798585Y-123635294D01*
X167817185Y-123684507D01*
X167819273Y-123688726D01*
X167846394Y-123731185D01*
X167881077Y-123766545D01*
X167919169Y-123792529D01*
X167968171Y-123813527D01*
X168019081Y-123825052D01*
X168070079Y-123829266D01*
X168082079Y-123829410D01*
G37*
G36*
X167560620Y-123815000D02*
G01*
X167560620Y-123722676D01*
X167234312Y-123360464D01*
X167200590Y-123321695D01*
X167169171Y-123283292D01*
X167143698Y-123249333D01*
X167117186Y-123207935D01*
X167097780Y-123165558D01*
X167086655Y-123117492D01*
X167084835Y-123087644D01*
X167091189Y-123035105D01*
X167110252Y-122989230D01*
X167130020Y-122962348D01*
X167169221Y-122931241D01*
X167219413Y-122914491D01*
X167258980Y-122911301D01*
X167309885Y-122916453D01*
X167357229Y-122934021D01*
X167395512Y-122964057D01*
X167423323Y-123005354D01*
X167438588Y-123051913D01*
X167444170Y-123101158D01*
X167444360Y-123113046D01*
X167573565Y-123113046D01*
X167574786Y-123108893D01*
X167572201Y-123056725D01*
X167561696Y-123007991D01*
X167543273Y-122962691D01*
X167538638Y-122954043D01*
X167508206Y-122910236D01*
X167469635Y-122873181D01*
X167427508Y-122845355D01*
X167379322Y-122824232D01*
X167331346Y-122811910D01*
X167279004Y-122805925D01*
X167254340Y-122805300D01*
X167203277Y-122808140D01*
X167151480Y-122817957D01*
X167104883Y-122834787D01*
X167091918Y-122841203D01*
X167048763Y-122869004D01*
X167012997Y-122903039D01*
X166986894Y-122939389D01*
X166965896Y-122984262D01*
X166953615Y-123033580D01*
X166950013Y-123082271D01*
X166954736Y-123133401D01*
X166967665Y-123180832D01*
X166971506Y-123190959D01*
X166992275Y-123235259D01*
X167019655Y-123280446D01*
X167034521Y-123301601D01*
X167064890Y-123341308D01*
X167099242Y-123382516D01*
X167133928Y-123421280D01*
X167395756Y-123706311D01*
X167394291Y-123709731D01*
X167040871Y-123709731D01*
X167030125Y-123595669D01*
X166915819Y-123595669D01*
X166915819Y-123815000D01*
X167560620Y-123815000D01*
G37*
D12*
%TO.C,J1*%
X107890000Y-127000000D02*
X110550000Y-127000000D01*
X107890000Y-132140000D02*
X107890000Y-127000000D01*
X107890000Y-132140000D02*
X110550000Y-132140000D01*
X109220000Y-124400000D02*
X110550000Y-124400000D01*
X110550000Y-124400000D02*
X110550000Y-125730000D01*
X110550000Y-132140000D02*
X110550000Y-127000000D01*
%TO.C,J2*%
X166310000Y-127000000D02*
X168970000Y-127000000D01*
X166310000Y-132140000D02*
X166310000Y-127000000D01*
X166310000Y-132140000D02*
X168970000Y-132140000D01*
X167640000Y-124400000D02*
X168970000Y-124400000D01*
X168970000Y-124400000D02*
X168970000Y-125730000D01*
X168970000Y-132140000D02*
X168970000Y-127000000D01*
%TD*%
M02*
