%TF.GenerationSoftware,KiCad,Pcbnew,8.0.1*%
%TF.CreationDate,2024-08-17T00:23:43+01:00*%
%TF.ProjectId,ProjectALIENExpansionDemoButtons,50726f6a-6563-4744-914c-49454e457870,rev?*%
%TF.SameCoordinates,Original*%
%TF.FileFunction,Copper,L1,Top*%
%TF.FilePolarity,Positive*%
%FSLAX46Y46*%
G04 Gerber Fmt 4.6, Leading zero omitted, Abs format (unit mm)*
G04 Created by KiCad (PCBNEW 8.0.1) date 2024-08-17 00:23:43*
%MOMM*%
%LPD*%
G01*
G04 APERTURE LIST*
%TA.AperFunction,ComponentPad*%
%ADD10C,2.000000*%
%TD*%
%TA.AperFunction,ComponentPad*%
%ADD11C,1.000000*%
%TD*%
%TA.AperFunction,ComponentPad*%
%ADD12R,1.700000X1.700000*%
%TD*%
%TA.AperFunction,ComponentPad*%
%ADD13O,1.700000X1.700000*%
%TD*%
%TA.AperFunction,Conductor*%
%ADD14C,0.200000*%
%TD*%
G04 APERTURE END LIST*
D10*
%TO.P,SW3,1,1*%
%TO.N,D13*%
X153670000Y-126715000D03*
%TO.P,SW3,2,2*%
%TO.N,GND*%
X153670000Y-132365000D03*
%TD*%
%TO.P,SW2,1,1*%
%TO.N,D12*%
X138500000Y-126815000D03*
%TO.P,SW2,2,2*%
%TO.N,GND*%
X138500000Y-132465000D03*
%TD*%
%TO.P,SW1,1,1*%
%TO.N,D11*%
X123190000Y-126715000D03*
%TO.P,SW1,2,2*%
%TO.N,GND*%
X123190000Y-132365000D03*
%TD*%
D11*
%TO.P,TP2,1,1*%
%TO.N,D12*%
X111760000Y-128270000D03*
%TD*%
%TO.P,TP5,1,1*%
%TO.N,+3.3V*%
X165100000Y-128270000D03*
%TD*%
%TO.P,TP3,1,1*%
%TO.N,D13*%
X111760000Y-130810000D03*
%TD*%
%TO.P,TP4,1,1*%
%TO.N,GND*%
X165100000Y-125730000D03*
%TD*%
%TO.P,TP6,1,1*%
%TO.N,+5V*%
X165100000Y-130810000D03*
%TD*%
%TO.P,TP1,1,1*%
%TO.N,D11*%
X111760000Y-125730000D03*
%TD*%
D12*
%TO.P,J1,1,Pin_1*%
%TO.N,D11*%
X109220000Y-125730000D03*
D13*
%TO.P,J1,2,Pin_2*%
%TO.N,D12*%
X109220000Y-128270000D03*
%TO.P,J1,3,Pin_3*%
%TO.N,D13*%
X109220000Y-130810000D03*
%TD*%
D12*
%TO.P,J2,1,Pin_1*%
%TO.N,GND*%
X167640000Y-125730000D03*
D13*
%TO.P,J2,2,Pin_2*%
%TO.N,+3.3V*%
X167640000Y-128270000D03*
%TO.P,J2,3,Pin_3*%
%TO.N,+5V*%
X167640000Y-130810000D03*
%TD*%
D14*
%TO.N,D13*%
X151885000Y-124930000D02*
X153670000Y-126715000D01*
X112657057Y-124930000D02*
X151885000Y-124930000D01*
X108024315Y-124060000D02*
X111787057Y-124060000D01*
X107670000Y-124414314D02*
X108024315Y-124060000D01*
X109220000Y-130810000D02*
X107670000Y-129260000D01*
X107670000Y-129260000D02*
X107670000Y-124414314D01*
X111787057Y-124060000D02*
X112657057Y-124930000D01*
%TO.N,D12*%
X137015000Y-125330000D02*
X138500000Y-126815000D01*
X112491371Y-125330000D02*
X137015000Y-125330000D01*
X108070000Y-124580000D02*
X111741371Y-124580000D01*
X108070000Y-127120000D02*
X108070000Y-124580000D01*
X111741371Y-124580000D02*
X112491371Y-125330000D01*
X109220000Y-128270000D02*
X108070000Y-127120000D01*
%TO.N,D11*%
X111760000Y-125730000D02*
X122205000Y-125730000D01*
X122205000Y-125730000D02*
X123190000Y-126715000D01*
%TO.N,+3.3V*%
X165100000Y-128270000D02*
X167640000Y-128270000D01*
%TO.N,+5V*%
X167640000Y-130810000D02*
X165100000Y-130810000D01*
%TO.N,D13*%
X111760000Y-130810000D02*
X109220000Y-130810000D01*
%TO.N,D12*%
X109220000Y-128270000D02*
X111760000Y-128270000D01*
%TO.N,D11*%
X109220000Y-125730000D02*
X111760000Y-125730000D01*
%TD*%
%TA.AperFunction,Conductor*%
%TO.N,GND*%
G36*
X168052702Y-120250617D02*
G01*
X168436771Y-120267386D01*
X168447506Y-120268326D01*
X168825971Y-120318152D01*
X168836597Y-120320025D01*
X169209284Y-120402648D01*
X169219710Y-120405442D01*
X169583765Y-120520227D01*
X169593911Y-120523920D01*
X169946578Y-120670000D01*
X169956369Y-120674566D01*
X170294942Y-120850816D01*
X170304310Y-120856224D01*
X170626244Y-121061318D01*
X170635105Y-121067523D01*
X170937930Y-121299889D01*
X170946217Y-121306843D01*
X171227635Y-121564715D01*
X171235284Y-121572364D01*
X171493156Y-121853782D01*
X171500110Y-121862069D01*
X171732476Y-122164894D01*
X171738681Y-122173755D01*
X171943775Y-122495689D01*
X171949183Y-122505057D01*
X172125430Y-122843623D01*
X172130002Y-122853427D01*
X172276075Y-123206078D01*
X172279775Y-123216244D01*
X172394554Y-123580278D01*
X172397354Y-123590727D01*
X172479971Y-123963389D01*
X172481849Y-123974042D01*
X172531671Y-124352473D01*
X172532614Y-124363249D01*
X172549382Y-124747297D01*
X172549500Y-124752706D01*
X172549500Y-134527293D01*
X172549382Y-134532702D01*
X172532614Y-134916750D01*
X172531671Y-134927526D01*
X172481849Y-135305957D01*
X172479971Y-135316610D01*
X172397354Y-135689272D01*
X172394554Y-135699721D01*
X172279775Y-136063755D01*
X172276075Y-136073921D01*
X172130002Y-136426572D01*
X172125430Y-136436376D01*
X171949183Y-136774942D01*
X171943775Y-136784310D01*
X171738681Y-137106244D01*
X171732476Y-137115105D01*
X171500110Y-137417930D01*
X171493156Y-137426217D01*
X171235284Y-137707635D01*
X171227635Y-137715284D01*
X170946217Y-137973156D01*
X170937930Y-137980110D01*
X170635105Y-138212476D01*
X170626244Y-138218681D01*
X170304310Y-138423775D01*
X170294942Y-138429183D01*
X169956376Y-138605430D01*
X169946572Y-138610002D01*
X169593921Y-138756075D01*
X169583755Y-138759775D01*
X169219721Y-138874554D01*
X169209272Y-138877354D01*
X168836610Y-138959971D01*
X168825957Y-138961849D01*
X168447526Y-139011671D01*
X168436750Y-139012614D01*
X168052703Y-139029382D01*
X168047294Y-139029500D01*
X108952706Y-139029500D01*
X108947297Y-139029382D01*
X108563249Y-139012614D01*
X108552473Y-139011671D01*
X108174042Y-138961849D01*
X108163389Y-138959971D01*
X107790727Y-138877354D01*
X107780278Y-138874554D01*
X107416244Y-138759775D01*
X107406078Y-138756075D01*
X107053427Y-138610002D01*
X107043623Y-138605430D01*
X106705057Y-138429183D01*
X106695689Y-138423775D01*
X106373755Y-138218681D01*
X106364894Y-138212476D01*
X106062069Y-137980110D01*
X106053782Y-137973156D01*
X105772364Y-137715284D01*
X105764715Y-137707635D01*
X105506843Y-137426217D01*
X105499889Y-137417930D01*
X105267523Y-137115105D01*
X105261318Y-137106244D01*
X105056224Y-136784310D01*
X105050816Y-136774942D01*
X104874569Y-136436376D01*
X104869997Y-136426572D01*
X104723924Y-136073921D01*
X104720224Y-136063755D01*
X104605442Y-135699710D01*
X104602648Y-135689284D01*
X104520025Y-135316597D01*
X104518152Y-135305971D01*
X104468326Y-134927506D01*
X104467386Y-134916771D01*
X104450618Y-134532702D01*
X104450500Y-134527293D01*
X104450500Y-132365005D01*
X121684859Y-132365005D01*
X121705385Y-132612729D01*
X121705387Y-132612738D01*
X121766412Y-132853717D01*
X121866266Y-133081364D01*
X121966564Y-133234882D01*
X122666212Y-132535234D01*
X122677482Y-132577292D01*
X122749890Y-132702708D01*
X122852292Y-132805110D01*
X122977708Y-132877518D01*
X123019765Y-132888787D01*
X122319942Y-133588609D01*
X122366768Y-133625055D01*
X122366770Y-133625056D01*
X122585385Y-133743364D01*
X122585396Y-133743369D01*
X122820506Y-133824083D01*
X123065707Y-133865000D01*
X123314293Y-133865000D01*
X123559493Y-133824083D01*
X123794603Y-133743369D01*
X123794614Y-133743364D01*
X124013228Y-133625057D01*
X124013231Y-133625055D01*
X124060056Y-133588609D01*
X123360234Y-132888787D01*
X123402292Y-132877518D01*
X123527708Y-132805110D01*
X123630110Y-132702708D01*
X123702518Y-132577292D01*
X123713787Y-132535235D01*
X124413434Y-133234882D01*
X124513731Y-133081369D01*
X124613587Y-132853717D01*
X124674612Y-132612738D01*
X124674614Y-132612729D01*
X124686855Y-132465005D01*
X136994859Y-132465005D01*
X137015385Y-132712729D01*
X137015387Y-132712738D01*
X137076412Y-132953717D01*
X137176266Y-133181364D01*
X137276564Y-133334882D01*
X137976212Y-132635234D01*
X137987482Y-132677292D01*
X138059890Y-132802708D01*
X138162292Y-132905110D01*
X138287708Y-132977518D01*
X138329765Y-132988787D01*
X137629942Y-133688609D01*
X137676768Y-133725055D01*
X137676770Y-133725056D01*
X137895385Y-133843364D01*
X137895396Y-133843369D01*
X138130506Y-133924083D01*
X138375707Y-133965000D01*
X138624293Y-133965000D01*
X138869493Y-133924083D01*
X139104603Y-133843369D01*
X139104614Y-133843364D01*
X139323228Y-133725057D01*
X139323231Y-133725055D01*
X139370056Y-133688609D01*
X138670234Y-132988787D01*
X138712292Y-132977518D01*
X138837708Y-132905110D01*
X138940110Y-132802708D01*
X139012518Y-132677292D01*
X139023787Y-132635235D01*
X139723434Y-133334882D01*
X139823731Y-133181369D01*
X139923587Y-132953717D01*
X139984612Y-132712738D01*
X139984614Y-132712729D01*
X140005141Y-132465005D01*
X140005141Y-132464994D01*
X139996856Y-132365005D01*
X152164859Y-132365005D01*
X152185385Y-132612729D01*
X152185387Y-132612738D01*
X152246412Y-132853717D01*
X152346266Y-133081364D01*
X152446564Y-133234882D01*
X153146212Y-132535234D01*
X153157482Y-132577292D01*
X153229890Y-132702708D01*
X153332292Y-132805110D01*
X153457708Y-132877518D01*
X153499765Y-132888787D01*
X152799942Y-133588609D01*
X152846768Y-133625055D01*
X152846770Y-133625056D01*
X153065385Y-133743364D01*
X153065396Y-133743369D01*
X153300506Y-133824083D01*
X153545707Y-133865000D01*
X153794293Y-133865000D01*
X154039493Y-133824083D01*
X154274603Y-133743369D01*
X154274614Y-133743364D01*
X154493228Y-133625057D01*
X154493231Y-133625055D01*
X154540056Y-133588609D01*
X153840234Y-132888787D01*
X153882292Y-132877518D01*
X154007708Y-132805110D01*
X154110110Y-132702708D01*
X154182518Y-132577292D01*
X154193787Y-132535235D01*
X154893434Y-133234882D01*
X154993731Y-133081369D01*
X155093587Y-132853717D01*
X155154612Y-132612738D01*
X155154614Y-132612729D01*
X155175141Y-132365005D01*
X155175141Y-132364994D01*
X155154614Y-132117270D01*
X155154612Y-132117261D01*
X155093587Y-131876282D01*
X154993731Y-131648630D01*
X154893434Y-131495116D01*
X154193787Y-132194764D01*
X154182518Y-132152708D01*
X154110110Y-132027292D01*
X154007708Y-131924890D01*
X153882292Y-131852482D01*
X153840235Y-131841212D01*
X154540057Y-131141390D01*
X154540056Y-131141389D01*
X154493229Y-131104943D01*
X154274614Y-130986635D01*
X154274603Y-130986630D01*
X154039493Y-130905916D01*
X153794293Y-130865000D01*
X153545707Y-130865000D01*
X153300506Y-130905916D01*
X153065396Y-130986630D01*
X153065390Y-130986632D01*
X152846761Y-131104949D01*
X152799942Y-131141388D01*
X152799942Y-131141390D01*
X153499765Y-131841212D01*
X153457708Y-131852482D01*
X153332292Y-131924890D01*
X153229890Y-132027292D01*
X153157482Y-132152708D01*
X153146212Y-132194764D01*
X152446564Y-131495116D01*
X152346267Y-131648632D01*
X152246412Y-131876282D01*
X152185387Y-132117261D01*
X152185385Y-132117270D01*
X152164859Y-132364994D01*
X152164859Y-132365005D01*
X139996856Y-132365005D01*
X139984614Y-132217270D01*
X139984612Y-132217261D01*
X139923587Y-131976282D01*
X139823731Y-131748630D01*
X139723434Y-131595116D01*
X139023787Y-132294764D01*
X139012518Y-132252708D01*
X138940110Y-132127292D01*
X138837708Y-132024890D01*
X138712292Y-131952482D01*
X138670235Y-131941212D01*
X139370057Y-131241390D01*
X139370056Y-131241389D01*
X139323229Y-131204943D01*
X139104614Y-131086635D01*
X139104603Y-131086630D01*
X138869493Y-131005916D01*
X138624293Y-130965000D01*
X138375707Y-130965000D01*
X138130506Y-131005916D01*
X137895396Y-131086630D01*
X137895390Y-131086632D01*
X137676761Y-131204949D01*
X137629942Y-131241388D01*
X137629942Y-131241390D01*
X138329765Y-131941212D01*
X138287708Y-131952482D01*
X138162292Y-132024890D01*
X138059890Y-132127292D01*
X137987482Y-132252708D01*
X137976212Y-132294764D01*
X137276564Y-131595116D01*
X137176267Y-131748632D01*
X137076412Y-131976282D01*
X137015387Y-132217261D01*
X137015385Y-132217270D01*
X136994859Y-132464994D01*
X136994859Y-132465005D01*
X124686855Y-132465005D01*
X124695141Y-132365005D01*
X124695141Y-132364994D01*
X124674614Y-132117270D01*
X124674612Y-132117261D01*
X124613587Y-131876282D01*
X124513731Y-131648630D01*
X124413434Y-131495116D01*
X123713787Y-132194764D01*
X123702518Y-132152708D01*
X123630110Y-132027292D01*
X123527708Y-131924890D01*
X123402292Y-131852482D01*
X123360235Y-131841212D01*
X124060057Y-131141390D01*
X124060056Y-131141389D01*
X124013229Y-131104943D01*
X123794614Y-130986635D01*
X123794603Y-130986630D01*
X123559493Y-130905916D01*
X123314293Y-130865000D01*
X123065707Y-130865000D01*
X122820506Y-130905916D01*
X122585396Y-130986630D01*
X122585390Y-130986632D01*
X122366761Y-131104949D01*
X122319942Y-131141388D01*
X122319942Y-131141390D01*
X123019765Y-131841212D01*
X122977708Y-131852482D01*
X122852292Y-131924890D01*
X122749890Y-132027292D01*
X122677482Y-132152708D01*
X122666212Y-132194764D01*
X121966564Y-131495116D01*
X121866267Y-131648632D01*
X121766412Y-131876282D01*
X121705387Y-132117261D01*
X121705385Y-132117270D01*
X121684859Y-132364994D01*
X121684859Y-132365005D01*
X104450500Y-132365005D01*
X104450500Y-129339054D01*
X107069498Y-129339054D01*
X107069499Y-129339057D01*
X107110423Y-129491785D01*
X107136007Y-129536097D01*
X107187251Y-129624855D01*
X107189479Y-129628714D01*
X107189481Y-129628717D01*
X107308349Y-129747585D01*
X107308355Y-129747590D01*
X107887233Y-130326468D01*
X107920718Y-130387791D01*
X107919327Y-130446241D01*
X107884939Y-130574583D01*
X107884936Y-130574596D01*
X107864341Y-130809999D01*
X107864341Y-130810000D01*
X107884936Y-131045403D01*
X107884938Y-131045413D01*
X107946094Y-131273655D01*
X107946096Y-131273659D01*
X107946097Y-131273663D01*
X108043293Y-131482099D01*
X108045965Y-131487830D01*
X108045967Y-131487834D01*
X108154281Y-131642521D01*
X108181505Y-131681401D01*
X108348599Y-131848495D01*
X108388283Y-131876282D01*
X108542165Y-131984032D01*
X108542167Y-131984033D01*
X108542170Y-131984035D01*
X108756337Y-132083903D01*
X108984592Y-132145063D01*
X109172918Y-132161539D01*
X109219999Y-132165659D01*
X109220000Y-132165659D01*
X109220001Y-132165659D01*
X109259234Y-132162226D01*
X109455408Y-132145063D01*
X109683663Y-132083903D01*
X109897830Y-131984035D01*
X110091401Y-131848495D01*
X110258495Y-131681401D01*
X110394035Y-131487830D01*
X110396707Y-131482097D01*
X110442878Y-131429658D01*
X110509091Y-131410500D01*
X110899880Y-131410500D01*
X110966919Y-131430185D01*
X110995733Y-131455835D01*
X111049116Y-131520883D01*
X111201460Y-131645909D01*
X111201467Y-131645913D01*
X111375266Y-131738811D01*
X111375269Y-131738811D01*
X111375273Y-131738814D01*
X111563868Y-131796024D01*
X111760000Y-131815341D01*
X111956132Y-131796024D01*
X112144727Y-131738814D01*
X112318538Y-131645910D01*
X112470883Y-131520883D01*
X112595910Y-131368538D01*
X112683350Y-131204949D01*
X112688811Y-131194733D01*
X112688811Y-131194732D01*
X112688814Y-131194727D01*
X112746024Y-131006132D01*
X112765341Y-130810000D01*
X164094659Y-130810000D01*
X164113975Y-131006129D01*
X164171188Y-131194733D01*
X164264086Y-131368532D01*
X164264090Y-131368539D01*
X164389116Y-131520883D01*
X164541460Y-131645909D01*
X164541467Y-131645913D01*
X164715266Y-131738811D01*
X164715269Y-131738811D01*
X164715273Y-131738814D01*
X164903868Y-131796024D01*
X165100000Y-131815341D01*
X165296132Y-131796024D01*
X165484727Y-131738814D01*
X165658538Y-131645910D01*
X165810883Y-131520883D01*
X165864267Y-131455835D01*
X165922012Y-131416501D01*
X165960120Y-131410500D01*
X166350909Y-131410500D01*
X166417948Y-131430185D01*
X166463292Y-131482097D01*
X166465965Y-131487830D01*
X166601505Y-131681401D01*
X166768599Y-131848495D01*
X166808283Y-131876282D01*
X166962165Y-131984032D01*
X166962167Y-131984033D01*
X166962170Y-131984035D01*
X167176337Y-132083903D01*
X167404592Y-132145063D01*
X167592918Y-132161539D01*
X167639999Y-132165659D01*
X167640000Y-132165659D01*
X167640001Y-132165659D01*
X167679234Y-132162226D01*
X167875408Y-132145063D01*
X168103663Y-132083903D01*
X168317830Y-131984035D01*
X168511401Y-131848495D01*
X168678495Y-131681401D01*
X168814035Y-131487830D01*
X168913903Y-131273663D01*
X168975063Y-131045408D01*
X168995659Y-130810000D01*
X168975063Y-130574592D01*
X168913903Y-130346337D01*
X168814035Y-130132171D01*
X168814034Y-130132169D01*
X168678494Y-129938597D01*
X168511402Y-129771506D01*
X168511396Y-129771501D01*
X168325842Y-129641575D01*
X168282217Y-129586998D01*
X168275023Y-129517500D01*
X168306546Y-129455145D01*
X168325842Y-129438425D01*
X168348026Y-129422891D01*
X168511401Y-129308495D01*
X168678495Y-129141401D01*
X168814035Y-128947830D01*
X168913903Y-128733663D01*
X168975063Y-128505408D01*
X168995659Y-128270000D01*
X168975063Y-128034592D01*
X168913903Y-127806337D01*
X168814035Y-127592171D01*
X168814034Y-127592169D01*
X168678496Y-127398600D01*
X168621082Y-127341186D01*
X168556179Y-127276283D01*
X168522696Y-127214963D01*
X168527680Y-127145271D01*
X168569551Y-127089337D01*
X168600529Y-127072422D01*
X168732086Y-127023354D01*
X168732093Y-127023350D01*
X168847187Y-126937190D01*
X168847190Y-126937187D01*
X168933350Y-126822093D01*
X168933354Y-126822086D01*
X168983596Y-126687379D01*
X168983598Y-126687372D01*
X168989999Y-126627844D01*
X168990000Y-126627827D01*
X168990000Y-125980000D01*
X168073012Y-125980000D01*
X168105925Y-125922993D01*
X168140000Y-125795826D01*
X168140000Y-125664174D01*
X168105925Y-125537007D01*
X168073012Y-125480000D01*
X168990000Y-125480000D01*
X168990000Y-124832172D01*
X168989999Y-124832155D01*
X168983598Y-124772627D01*
X168983596Y-124772620D01*
X168933354Y-124637913D01*
X168933350Y-124637906D01*
X168847190Y-124522812D01*
X168847187Y-124522809D01*
X168732093Y-124436649D01*
X168732086Y-124436645D01*
X168597379Y-124386403D01*
X168597372Y-124386401D01*
X168537844Y-124380000D01*
X167890000Y-124380000D01*
X167890000Y-125296988D01*
X167832993Y-125264075D01*
X167705826Y-125230000D01*
X167574174Y-125230000D01*
X167447007Y-125264075D01*
X167390000Y-125296988D01*
X167390000Y-124380000D01*
X166742155Y-124380000D01*
X166682627Y-124386401D01*
X166682620Y-124386403D01*
X166547913Y-124436645D01*
X166547906Y-124436649D01*
X166432812Y-124522809D01*
X166432809Y-124522812D01*
X166346649Y-124637906D01*
X166346645Y-124637913D01*
X166296403Y-124772620D01*
X166296401Y-124772627D01*
X166290000Y-124832155D01*
X166290000Y-125372069D01*
X166270315Y-125439108D01*
X166217511Y-125484863D01*
X166148353Y-125494807D01*
X166084797Y-125465782D01*
X166047340Y-125408065D01*
X166028350Y-125345465D01*
X165962075Y-125221476D01*
X165453553Y-125729999D01*
X165453553Y-125730000D01*
X165962076Y-126238523D01*
X166028348Y-126114537D01*
X166047339Y-126051935D01*
X166085637Y-125993496D01*
X166149449Y-125965040D01*
X166218516Y-125975600D01*
X166270910Y-126021824D01*
X166290000Y-126087930D01*
X166290000Y-126627844D01*
X166296401Y-126687372D01*
X166296403Y-126687379D01*
X166346645Y-126822086D01*
X166346649Y-126822093D01*
X166432809Y-126937187D01*
X166432812Y-126937190D01*
X166547906Y-127023350D01*
X166547913Y-127023354D01*
X166679470Y-127072421D01*
X166735403Y-127114292D01*
X166759821Y-127179756D01*
X166744970Y-127248029D01*
X166723819Y-127276284D01*
X166601503Y-127398600D01*
X166465965Y-127592170D01*
X166465962Y-127592175D01*
X166463289Y-127597909D01*
X166417115Y-127650346D01*
X166350909Y-127669500D01*
X165960120Y-127669500D01*
X165893081Y-127649815D01*
X165864267Y-127624165D01*
X165810883Y-127559116D01*
X165658539Y-127434090D01*
X165658532Y-127434086D01*
X165484733Y-127341188D01*
X165484727Y-127341186D01*
X165296132Y-127283976D01*
X165296129Y-127283975D01*
X165100000Y-127264659D01*
X164903870Y-127283975D01*
X164715266Y-127341188D01*
X164541467Y-127434086D01*
X164541460Y-127434090D01*
X164389116Y-127559116D01*
X164264090Y-127711460D01*
X164264086Y-127711467D01*
X164171188Y-127885266D01*
X164113975Y-128073870D01*
X164094659Y-128270000D01*
X164113975Y-128466129D01*
X164171188Y-128654733D01*
X164264086Y-128828532D01*
X164264090Y-128828539D01*
X164389116Y-128980883D01*
X164541460Y-129105909D01*
X164541467Y-129105913D01*
X164715266Y-129198811D01*
X164715269Y-129198811D01*
X164715273Y-129198814D01*
X164903868Y-129256024D01*
X165100000Y-129275341D01*
X165296132Y-129256024D01*
X165484727Y-129198814D01*
X165532371Y-129173348D01*
X165658532Y-129105913D01*
X165658538Y-129105910D01*
X165810883Y-128980883D01*
X165864267Y-128915835D01*
X165922012Y-128876501D01*
X165960120Y-128870500D01*
X166350909Y-128870500D01*
X166417948Y-128890185D01*
X166463292Y-128942097D01*
X166465965Y-128947830D01*
X166465966Y-128947831D01*
X166601501Y-129141395D01*
X166601506Y-129141402D01*
X166768597Y-129308493D01*
X166768603Y-129308498D01*
X166954158Y-129438425D01*
X166997783Y-129493002D01*
X167004977Y-129562500D01*
X166973454Y-129624855D01*
X166954158Y-129641575D01*
X166768597Y-129771505D01*
X166601506Y-129938596D01*
X166465965Y-130132170D01*
X166465962Y-130132175D01*
X166463289Y-130137909D01*
X166417115Y-130190346D01*
X166350909Y-130209500D01*
X165960120Y-130209500D01*
X165893081Y-130189815D01*
X165864267Y-130164165D01*
X165810883Y-130099116D01*
X165658539Y-129974090D01*
X165658532Y-129974086D01*
X165484733Y-129881188D01*
X165484727Y-129881186D01*
X165296132Y-129823976D01*
X165296129Y-129823975D01*
X165100000Y-129804659D01*
X164903870Y-129823975D01*
X164715266Y-129881188D01*
X164541467Y-129974086D01*
X164541460Y-129974090D01*
X164389116Y-130099116D01*
X164264090Y-130251460D01*
X164264086Y-130251467D01*
X164171188Y-130425266D01*
X164113975Y-130613870D01*
X164094659Y-130810000D01*
X112765341Y-130810000D01*
X112746024Y-130613868D01*
X112688814Y-130425273D01*
X112688811Y-130425269D01*
X112688811Y-130425266D01*
X112595913Y-130251467D01*
X112595909Y-130251460D01*
X112470883Y-130099116D01*
X112318539Y-129974090D01*
X112318532Y-129974086D01*
X112144733Y-129881188D01*
X112144727Y-129881186D01*
X111956132Y-129823976D01*
X111956129Y-129823975D01*
X111760000Y-129804659D01*
X111563870Y-129823975D01*
X111375266Y-129881188D01*
X111201467Y-129974086D01*
X111201460Y-129974090D01*
X111049116Y-130099116D01*
X110995733Y-130164165D01*
X110937988Y-130203499D01*
X110899880Y-130209500D01*
X110509091Y-130209500D01*
X110442052Y-130189815D01*
X110396711Y-130137909D01*
X110394037Y-130132175D01*
X110394034Y-130132170D01*
X110394033Y-130132169D01*
X110258495Y-129938599D01*
X110258494Y-129938597D01*
X110091402Y-129771506D01*
X110091396Y-129771501D01*
X109905842Y-129641575D01*
X109862217Y-129586998D01*
X109855023Y-129517500D01*
X109886546Y-129455145D01*
X109905842Y-129438425D01*
X109928026Y-129422891D01*
X110091401Y-129308495D01*
X110258495Y-129141401D01*
X110394035Y-128947830D01*
X110396707Y-128942097D01*
X110442878Y-128889658D01*
X110509091Y-128870500D01*
X110899880Y-128870500D01*
X110966919Y-128890185D01*
X110995733Y-128915835D01*
X111049116Y-128980883D01*
X111201460Y-129105909D01*
X111201467Y-129105913D01*
X111375266Y-129198811D01*
X111375269Y-129198811D01*
X111375273Y-129198814D01*
X111563868Y-129256024D01*
X111760000Y-129275341D01*
X111956132Y-129256024D01*
X112144727Y-129198814D01*
X112192371Y-129173348D01*
X112318532Y-129105913D01*
X112318538Y-129105910D01*
X112470883Y-128980883D01*
X112595910Y-128828538D01*
X112688814Y-128654727D01*
X112746024Y-128466132D01*
X112765341Y-128270000D01*
X112746024Y-128073868D01*
X112688814Y-127885273D01*
X112688811Y-127885269D01*
X112688811Y-127885266D01*
X112595913Y-127711467D01*
X112595909Y-127711460D01*
X112470883Y-127559116D01*
X112318539Y-127434090D01*
X112318532Y-127434086D01*
X112144733Y-127341188D01*
X112144727Y-127341186D01*
X111956132Y-127283976D01*
X111956129Y-127283975D01*
X111760000Y-127264659D01*
X111563870Y-127283975D01*
X111375266Y-127341188D01*
X111201467Y-127434086D01*
X111201460Y-127434090D01*
X111049116Y-127559116D01*
X110995733Y-127624165D01*
X110937988Y-127663499D01*
X110899880Y-127669500D01*
X110509091Y-127669500D01*
X110442052Y-127649815D01*
X110396711Y-127597909D01*
X110394037Y-127592175D01*
X110394034Y-127592170D01*
X110394033Y-127592169D01*
X110283343Y-127434086D01*
X110258496Y-127398600D01*
X110201082Y-127341186D01*
X110136567Y-127276671D01*
X110103084Y-127215351D01*
X110108068Y-127145659D01*
X110149939Y-127089725D01*
X110180915Y-127072810D01*
X110312331Y-127023796D01*
X110427546Y-126937546D01*
X110513796Y-126822331D01*
X110564091Y-126687483D01*
X110570500Y-126627873D01*
X110570500Y-126454500D01*
X110590185Y-126387461D01*
X110642989Y-126341706D01*
X110694500Y-126330500D01*
X110899880Y-126330500D01*
X110966919Y-126350185D01*
X110995733Y-126375835D01*
X111049116Y-126440883D01*
X111201460Y-126565909D01*
X111201467Y-126565913D01*
X111375266Y-126658811D01*
X111375269Y-126658811D01*
X111375273Y-126658814D01*
X111563868Y-126716024D01*
X111760000Y-126735341D01*
X111956132Y-126716024D01*
X112144727Y-126658814D01*
X112202614Y-126627873D01*
X112316149Y-126567187D01*
X112318538Y-126565910D01*
X112470883Y-126440883D01*
X112501982Y-126402989D01*
X112524267Y-126375835D01*
X112582012Y-126336501D01*
X112620120Y-126330500D01*
X121581518Y-126330500D01*
X121648557Y-126350185D01*
X121694312Y-126402989D01*
X121705094Y-126464740D01*
X121684357Y-126714994D01*
X121684357Y-126715005D01*
X121704890Y-126962812D01*
X121704892Y-126962824D01*
X121765936Y-127203881D01*
X121865826Y-127431606D01*
X122001833Y-127639782D01*
X122001836Y-127639785D01*
X122170256Y-127822738D01*
X122366491Y-127975474D01*
X122585190Y-128093828D01*
X122820386Y-128174571D01*
X123065665Y-128215500D01*
X123314335Y-128215500D01*
X123559614Y-128174571D01*
X123794810Y-128093828D01*
X124013509Y-127975474D01*
X124209744Y-127822738D01*
X124378164Y-127639785D01*
X124514173Y-127431607D01*
X124614063Y-127203881D01*
X124675108Y-126962821D01*
X124675109Y-126962812D01*
X124695643Y-126715005D01*
X124695643Y-126714994D01*
X124675109Y-126467187D01*
X124675107Y-126467175D01*
X124614063Y-126226118D01*
X124560633Y-126104310D01*
X124551730Y-126035010D01*
X124581707Y-125971898D01*
X124641047Y-125935011D01*
X124674189Y-125930500D01*
X136714903Y-125930500D01*
X136781942Y-125950185D01*
X136802584Y-125966819D01*
X137043482Y-126207717D01*
X137076967Y-126269040D01*
X137076007Y-126325838D01*
X137014892Y-126567174D01*
X137014890Y-126567187D01*
X136994357Y-126814989D01*
X136994357Y-126815005D01*
X137014890Y-127062812D01*
X137014892Y-127062824D01*
X137075936Y-127303881D01*
X137175826Y-127531606D01*
X137311833Y-127739782D01*
X137311836Y-127739785D01*
X137480256Y-127922738D01*
X137676491Y-128075474D01*
X137895190Y-128193828D01*
X138130386Y-128274571D01*
X138375665Y-128315500D01*
X138624335Y-128315500D01*
X138869614Y-128274571D01*
X139104810Y-128193828D01*
X139323509Y-128075474D01*
X139519744Y-127922738D01*
X139688164Y-127739785D01*
X139824173Y-127531607D01*
X139924063Y-127303881D01*
X139985108Y-127062821D01*
X139988342Y-127023793D01*
X140005643Y-126815005D01*
X140005643Y-126814989D01*
X139985109Y-126567187D01*
X139985107Y-126567175D01*
X139924063Y-126326118D01*
X139824173Y-126098393D01*
X139688166Y-125890217D01*
X139656667Y-125856000D01*
X139548482Y-125738480D01*
X139517562Y-125675829D01*
X139525422Y-125606402D01*
X139569569Y-125552247D01*
X139635986Y-125530556D01*
X139639714Y-125530500D01*
X151584903Y-125530500D01*
X151651942Y-125550185D01*
X151672584Y-125566819D01*
X152213482Y-126107717D01*
X152246967Y-126169040D01*
X152246007Y-126225838D01*
X152184892Y-126467174D01*
X152184890Y-126467187D01*
X152164357Y-126714994D01*
X152164357Y-126715005D01*
X152184890Y-126962812D01*
X152184892Y-126962824D01*
X152245936Y-127203881D01*
X152345826Y-127431606D01*
X152481833Y-127639782D01*
X152481836Y-127639785D01*
X152650256Y-127822738D01*
X152846491Y-127975474D01*
X153065190Y-128093828D01*
X153300386Y-128174571D01*
X153545665Y-128215500D01*
X153794335Y-128215500D01*
X154039614Y-128174571D01*
X154274810Y-128093828D01*
X154493509Y-127975474D01*
X154689744Y-127822738D01*
X154858164Y-127639785D01*
X154994173Y-127431607D01*
X155094063Y-127203881D01*
X155155108Y-126962821D01*
X155155109Y-126962812D01*
X155175643Y-126715005D01*
X155175643Y-126714994D01*
X155165458Y-126592075D01*
X164591476Y-126592075D01*
X164715462Y-126658348D01*
X164903969Y-126715531D01*
X164903965Y-126715531D01*
X165100000Y-126734838D01*
X165296032Y-126715531D01*
X165484537Y-126658348D01*
X165608523Y-126592076D01*
X165608523Y-126592075D01*
X165100001Y-126083553D01*
X165100000Y-126083553D01*
X164591476Y-126592075D01*
X155165458Y-126592075D01*
X155155109Y-126467187D01*
X155155107Y-126467175D01*
X155094063Y-126226118D01*
X154994173Y-125998393D01*
X154858166Y-125790217D01*
X154802732Y-125730000D01*
X164095161Y-125730000D01*
X164114468Y-125926032D01*
X164171651Y-126114537D01*
X164237923Y-126238522D01*
X164696719Y-125779728D01*
X164850000Y-125779728D01*
X164888060Y-125871614D01*
X164958386Y-125941940D01*
X165050272Y-125980000D01*
X165149728Y-125980000D01*
X165241614Y-125941940D01*
X165311940Y-125871614D01*
X165350000Y-125779728D01*
X165350000Y-125680272D01*
X165311940Y-125588386D01*
X165241614Y-125518060D01*
X165149728Y-125480000D01*
X165050272Y-125480000D01*
X164958386Y-125518060D01*
X164888060Y-125588386D01*
X164850000Y-125680272D01*
X164850000Y-125779728D01*
X164696719Y-125779728D01*
X164746447Y-125730000D01*
X164237923Y-125221476D01*
X164171649Y-125345466D01*
X164114468Y-125533967D01*
X164095161Y-125730000D01*
X154802732Y-125730000D01*
X154752864Y-125675829D01*
X154689744Y-125607262D01*
X154493509Y-125454526D01*
X154493507Y-125454525D01*
X154493506Y-125454524D01*
X154274811Y-125336172D01*
X154274802Y-125336169D01*
X154039616Y-125255429D01*
X153794335Y-125214500D01*
X153545665Y-125214500D01*
X153300382Y-125255429D01*
X153300380Y-125255429D01*
X153194393Y-125291815D01*
X153124595Y-125294965D01*
X153066450Y-125262215D01*
X152672158Y-124867923D01*
X164591476Y-124867923D01*
X165100000Y-125376447D01*
X165100001Y-125376447D01*
X165608522Y-124867923D01*
X165484537Y-124801651D01*
X165296030Y-124744468D01*
X165296034Y-124744468D01*
X165100000Y-124725161D01*
X164903967Y-124744468D01*
X164715466Y-124801649D01*
X164591476Y-124867923D01*
X152672158Y-124867923D01*
X152372590Y-124568355D01*
X152372588Y-124568352D01*
X152253717Y-124449481D01*
X152253709Y-124449475D01*
X152132509Y-124379501D01*
X152132506Y-124379500D01*
X152116785Y-124370423D01*
X151964057Y-124329499D01*
X151805943Y-124329499D01*
X151798347Y-124329499D01*
X151798331Y-124329500D01*
X112957155Y-124329500D01*
X112890116Y-124309815D01*
X112869474Y-124293181D01*
X112274647Y-123698355D01*
X112274645Y-123698352D01*
X112155774Y-123579481D01*
X112155773Y-123579480D01*
X112068961Y-123529360D01*
X112068961Y-123529359D01*
X112068957Y-123529358D01*
X112018842Y-123500423D01*
X111866114Y-123459499D01*
X111708000Y-123459499D01*
X111700404Y-123459499D01*
X111700388Y-123459500D01*
X107945258Y-123459500D01*
X107792531Y-123500423D01*
X107792524Y-123500426D01*
X107655605Y-123579475D01*
X107655597Y-123579481D01*
X107543794Y-123691285D01*
X107301285Y-123933793D01*
X107189481Y-124045596D01*
X107189475Y-124045604D01*
X107110426Y-124182523D01*
X107110423Y-124182528D01*
X107083339Y-124283608D01*
X107083338Y-124283607D01*
X107069500Y-124335253D01*
X107069499Y-124335258D01*
X107069499Y-124503359D01*
X107069500Y-124503372D01*
X107069500Y-129173330D01*
X107069499Y-129173348D01*
X107069499Y-129339054D01*
X107069498Y-129339054D01*
X104450500Y-129339054D01*
X104450500Y-124752706D01*
X104450618Y-124747297D01*
X104455394Y-124637906D01*
X104467386Y-124363226D01*
X104468326Y-124352495D01*
X104518152Y-123974025D01*
X104520025Y-123963405D01*
X104602649Y-123590709D01*
X104605440Y-123580295D01*
X104720230Y-123216227D01*
X104723917Y-123206095D01*
X104870003Y-122853412D01*
X104874561Y-122843638D01*
X105050822Y-122505045D01*
X105056217Y-122495700D01*
X105261325Y-122173744D01*
X105267515Y-122164905D01*
X105499896Y-121862060D01*
X105506834Y-121853791D01*
X105764726Y-121572352D01*
X105772352Y-121564726D01*
X106053791Y-121306834D01*
X106062060Y-121299896D01*
X106364905Y-121067515D01*
X106373744Y-121061325D01*
X106695700Y-120856217D01*
X106705045Y-120850822D01*
X107043638Y-120674561D01*
X107053412Y-120670003D01*
X107406095Y-120523917D01*
X107416227Y-120520230D01*
X107780295Y-120405440D01*
X107790709Y-120402649D01*
X108163405Y-120320025D01*
X108174025Y-120318152D01*
X108552495Y-120268326D01*
X108563226Y-120267386D01*
X108947297Y-120250617D01*
X108952706Y-120250500D01*
X109015892Y-120250500D01*
X167984108Y-120250500D01*
X168047294Y-120250500D01*
X168052702Y-120250617D01*
G37*
%TD.AperFunction*%
%TD*%
M02*
